<svg id="svg" version="1.1" xmlns="http://www.w3.org/2000/svg" xmlns:xlink="http://www.w3.org/1999/xlink" width="400" height="400" viewBox="0, 0, 400,400"><g id="svgg"><path id="path0" d="M173.600 0.400 C 173.600 0.644,171.733 0.800,168.800 0.800 C 164.267 0.800,164.000 0.844,164.000 1.600 C 164.000 2.344,163.733 2.400,160.163 2.400 C 156.662 2.400,156.307 2.470,156.116 3.200 C 155.931 3.909,155.570 4.000,152.953 4.000 C 150.267 4.000,150.000 4.072,150.000 4.800 C 150.000 5.533,149.733 5.600,146.800 5.600 C 143.867 5.600,143.600 5.667,143.600 6.400 C 143.600 7.111,143.333 7.200,141.200 7.200 C 139.067 7.200,138.800 7.289,138.800 8.000 C 138.800 8.711,138.533 8.800,136.400 8.800 C 134.615 8.800,134.000 8.943,134.000 9.357 C 134.000 10.077,133.122 10.400,131.167 10.400 C 129.852 10.400,129.600 10.532,129.600 11.224 C 129.600 11.707,129.423 11.938,129.172 11.782 C 128.321 11.257,125.119 12.022,124.916 12.800 C 124.760 13.397,124.459 13.494,123.339 13.313 C 122.162 13.122,121.921 13.216,121.731 13.944 C 121.550 14.633,121.204 14.800,119.953 14.800 C 118.667 14.800,118.400 14.937,118.400 15.600 C 118.400 16.259,118.133 16.400,116.888 16.400 C 115.835 16.400,115.202 16.643,114.800 17.200 C 114.469 17.660,113.765 18.000,113.144 18.000 C 111.658 18.000,110.800 18.381,110.800 19.043 C 110.800 19.416,110.325 19.600,109.363 19.600 C 108.262 19.600,107.876 19.787,107.716 20.400 C 107.600 20.843,107.170 21.200,106.753 21.200 C 106.339 21.200,105.640 21.560,105.200 22.000 C 104.760 22.440,104.040 22.800,103.600 22.800 C 103.067 22.800,102.800 23.067,102.800 23.600 C 102.800 24.267,102.533 24.400,101.200 24.400 C 99.867 24.400,99.600 24.533,99.600 25.200 C 99.600 25.867,99.333 26.000,98.000 26.000 C 96.667 26.000,96.400 26.133,96.400 26.800 C 96.400 27.333,96.133 27.600,95.600 27.600 C 95.067 27.600,94.800 27.867,94.800 28.400 C 94.800 29.049,94.533 29.200,93.387 29.200 C 92.512 29.200,91.889 29.424,91.749 29.789 C 91.624 30.113,90.910 30.493,90.161 30.634 C 89.389 30.779,88.800 31.129,88.800 31.445 C 88.800 31.750,88.453 32.000,88.028 32.000 C 87.545 32.000,87.208 32.321,87.128 32.857 C 87.035 33.478,86.670 33.750,85.807 33.840 C 85.151 33.909,84.412 34.243,84.163 34.583 C 83.915 34.922,83.417 35.200,83.056 35.200 C 82.667 35.200,82.400 35.525,82.400 36.000 C 82.400 36.533,82.133 36.800,81.600 36.800 C 81.067 36.800,80.800 37.067,80.800 37.600 C 80.800 38.252,80.533 38.400,79.363 38.400 C 78.262 38.400,77.876 38.587,77.716 39.200 C 77.600 39.643,77.170 40.000,76.753 40.000 C 76.267 40.000,76.000 40.283,76.000 40.800 C 76.000 41.342,75.733 41.600,75.173 41.600 C 74.528 41.600,74.402 41.776,74.600 42.400 C 74.810 43.062,74.672 43.200,73.800 43.200 C 72.928 43.200,72.790 43.338,73.000 44.000 C 73.226 44.710,73.072 44.800,71.627 44.800 C 70.267 44.800,70.000 44.931,70.000 45.600 C 70.000 46.133,69.733 46.400,69.200 46.400 C 68.667 46.400,68.400 46.667,68.400 47.200 C 68.400 47.733,68.133 48.000,67.600 48.000 C 67.067 48.000,66.800 48.267,66.800 48.800 C 66.800 49.333,66.533 49.600,66.000 49.600 C 65.560 49.600,65.200 49.858,65.200 50.173 C 65.200 50.488,64.840 50.860,64.400 51.000 C 63.960 51.140,63.600 51.512,63.600 51.827 C 63.600 52.142,63.326 52.400,62.990 52.400 C 62.655 52.400,62.210 52.847,62.003 53.392 C 61.752 54.052,61.420 54.306,61.013 54.150 C 60.582 53.984,60.400 54.165,60.400 54.757 C 60.400 55.333,60.147 55.600,59.600 55.600 C 59.067 55.600,58.800 55.867,58.800 56.400 C 58.800 56.933,58.533 57.200,58.000 57.200 C 57.467 57.200,57.200 57.467,57.200 58.000 C 57.200 58.533,56.933 58.800,56.400 58.800 C 55.867 58.800,55.600 59.067,55.600 59.600 C 55.600 60.147,55.333 60.400,54.757 60.400 C 54.165 60.400,53.984 60.582,54.150 61.013 C 54.306 61.420,54.052 61.752,53.392 62.003 C 52.847 62.210,52.400 62.655,52.400 62.990 C 52.400 63.326,52.142 63.600,51.827 63.600 C 51.512 63.600,51.140 63.960,51.000 64.400 C 50.860 64.840,50.488 65.200,50.173 65.200 C 49.858 65.200,49.600 65.560,49.600 66.000 C 49.600 66.533,49.333 66.800,48.800 66.800 C 48.267 66.800,48.000 67.067,48.000 67.600 C 48.000 68.133,47.733 68.400,47.200 68.400 C 46.667 68.400,46.400 68.667,46.400 69.200 C 46.400 69.733,46.133 70.000,45.600 70.000 C 44.931 70.000,44.800 70.267,44.800 71.627 C 44.800 73.072,44.710 73.226,44.000 73.000 C 43.338 72.790,43.200 72.928,43.200 73.800 C 43.200 74.672,43.062 74.810,42.400 74.600 C 41.776 74.402,41.600 74.528,41.600 75.173 C 41.600 75.733,41.342 76.000,40.800 76.000 C 40.303 76.000,40.000 76.267,40.000 76.704 C 40.000 77.091,39.640 77.632,39.200 77.907 C 38.690 78.226,38.400 78.840,38.400 79.603 C 38.400 80.533,38.222 80.800,37.600 80.800 C 37.067 80.800,36.800 81.067,36.800 81.600 C 36.800 82.133,36.533 82.400,36.000 82.400 C 35.333 82.400,35.200 82.667,35.200 84.000 C 35.200 85.360,35.074 85.600,34.357 85.600 C 33.765 85.600,33.584 85.782,33.750 86.213 C 33.907 86.624,33.643 86.955,32.948 87.220 C 32.213 87.499,31.967 87.830,32.104 88.354 C 32.232 88.844,32.093 89.078,31.692 89.047 C 31.352 89.021,30.910 89.527,30.684 90.200 C 30.463 90.860,30.039 91.544,29.741 91.720 C 29.444 91.896,29.200 92.661,29.200 93.420 C 29.200 94.533,29.045 94.800,28.400 94.800 C 27.883 94.800,27.600 95.067,27.600 95.553 C 27.600 95.970,27.243 96.400,26.800 96.516 C 26.187 96.676,26.000 97.062,26.000 98.163 C 26.000 99.333,25.852 99.600,25.200 99.600 C 24.533 99.600,24.400 99.867,24.400 101.200 C 24.400 102.533,24.267 102.800,23.600 102.800 C 22.933 102.800,22.800 103.067,22.800 104.400 C 22.800 105.733,22.667 106.000,22.000 106.000 C 21.556 106.000,21.200 106.267,21.200 106.600 C 21.200 106.930,20.840 107.560,20.400 108.000 C 19.960 108.440,19.600 109.160,19.600 109.600 C 19.600 110.040,19.240 110.760,18.800 111.200 C 18.275 111.725,18.000 112.533,18.000 113.553 C 18.000 114.770,17.827 115.152,17.200 115.316 C 16.594 115.475,16.400 115.862,16.400 116.916 C 16.400 117.987,16.209 118.357,15.570 118.524 C 15.068 118.655,14.770 119.029,14.816 119.470 C 14.971 120.951,14.785 121.600,14.208 121.600 C 13.589 121.600,12.998 123.195,13.292 124.075 C 13.385 124.355,13.093 124.882,12.643 125.247 C 12.036 125.738,11.821 126.388,11.812 127.754 C 11.802 129.238,11.664 129.598,11.100 129.599 C 10.537 129.600,10.400 129.953,10.400 131.404 C 10.400 132.713,10.180 133.396,9.600 133.893 C 8.988 134.417,8.800 135.073,8.800 136.689 C 8.800 138.533,8.699 138.800,8.000 138.800 C 7.289 138.800,7.200 139.067,7.200 141.200 C 7.200 143.333,7.111 143.600,6.400 143.600 C 5.667 143.600,5.600 143.867,5.600 146.800 C 5.600 149.733,5.533 150.000,4.800 150.000 C 4.072 150.000,4.000 150.267,4.000 152.953 C 4.000 155.570,3.909 155.931,3.200 156.116 C 2.471 156.307,2.400 156.662,2.400 160.116 C 2.400 163.570,2.329 163.925,1.600 164.116 C 0.858 164.310,0.800 164.662,0.800 168.963 C 0.800 171.788,0.644 173.600,0.400 173.600 C 0.137 173.600,0.000 182.667,0.000 200.000 C 0.000 217.333,0.137 226.400,0.400 226.400 C 0.644 226.400,0.800 228.235,0.800 231.104 C 0.800 235.374,0.874 235.854,1.600 236.307 C 2.299 236.744,2.400 237.240,2.400 240.241 C 2.400 243.338,2.478 243.695,3.200 243.884 C 3.915 244.071,4.000 244.430,4.000 247.247 C 4.000 249.867,4.135 250.535,4.800 251.200 C 5.406 251.806,5.600 252.533,5.600 254.200 C 5.600 256.133,5.697 256.400,6.400 256.400 C 7.107 256.400,7.200 256.667,7.200 258.704 C 7.200 260.574,7.350 261.102,8.000 261.507 C 8.623 261.896,8.800 262.440,8.800 263.961 C 8.800 265.264,8.986 265.986,9.359 266.129 C 9.676 266.250,10.038 267.219,10.196 268.372 C 10.419 269.989,10.627 270.400,11.225 270.400 C 11.730 270.400,11.899 270.598,11.743 271.005 C 11.308 272.139,11.994 275.140,12.721 275.281 C 13.205 275.375,13.400 275.814,13.400 276.807 C 13.400 277.908,13.572 278.225,14.222 278.318 C 14.914 278.417,15.032 278.693,14.962 280.057 C 14.904 281.199,15.104 281.904,15.640 282.440 C 16.058 282.858,16.400 283.734,16.400 284.386 C 16.400 285.162,16.676 285.720,17.200 286.000 C 17.755 286.297,18.000 286.838,18.000 287.767 C 18.000 288.770,18.201 289.159,18.800 289.316 C 19.413 289.476,19.600 289.862,19.600 290.963 C 19.600 292.133,19.748 292.400,20.400 292.400 C 21.052 292.400,21.200 292.667,21.200 293.837 C 21.200 294.938,21.387 295.324,22.000 295.484 C 22.597 295.640,22.800 296.030,22.800 297.020 C 22.800 297.995,23.012 298.413,23.600 298.600 C 24.040 298.740,24.400 299.202,24.400 299.627 C 24.400 300.133,24.676 300.400,25.200 300.400 C 25.867 300.400,26.000 300.667,26.000 302.000 C 26.000 303.333,26.133 303.600,26.800 303.600 C 27.445 303.600,27.600 303.867,27.600 304.973 C 27.600 305.995,27.805 306.411,28.400 306.600 C 28.840 306.740,29.200 307.202,29.200 307.627 C 29.200 308.052,29.462 308.400,29.782 308.400 C 30.130 308.400,30.469 308.962,30.626 309.800 C 30.777 310.602,31.126 311.200,31.445 311.200 C 31.750 311.200,32.000 311.560,32.000 312.000 C 32.000 312.533,32.267 312.800,32.800 312.800 C 33.619 312.800,33.746 313.103,33.612 314.729 C 33.559 315.371,33.792 315.725,34.368 315.876 C 34.839 315.999,35.200 316.420,35.200 316.847 C 35.200 317.333,35.483 317.600,36.000 317.600 C 36.587 317.600,36.800 317.867,36.800 318.600 C 36.800 319.150,37.160 319.960,37.600 320.400 C 38.040 320.840,38.400 321.470,38.400 321.800 C 38.400 322.133,38.756 322.400,39.200 322.400 C 39.733 322.400,40.000 322.667,40.000 323.200 C 40.000 323.733,40.267 324.000,40.800 324.000 C 41.333 324.000,41.600 324.267,41.600 324.800 C 41.600 325.333,41.867 325.600,42.400 325.600 C 43.045 325.600,43.200 325.867,43.200 326.973 C 43.200 327.995,43.405 328.411,44.000 328.600 C 44.440 328.740,44.800 329.112,44.800 329.427 C 44.800 329.742,45.160 330.000,45.600 330.000 C 46.133 330.000,46.400 330.267,46.400 330.800 C 46.400 331.333,46.667 331.600,47.200 331.600 C 47.733 331.600,48.000 331.867,48.000 332.400 C 48.000 332.933,48.267 333.200,48.800 333.200 C 49.333 333.200,49.600 333.467,49.600 334.000 C 49.600 334.444,49.867 334.800,50.200 334.800 C 50.533 334.800,50.800 335.156,50.800 335.600 C 50.800 336.163,51.067 336.400,51.700 336.401 C 52.419 336.402,52.608 336.638,52.641 337.574 C 52.670 338.385,53.194 339.252,54.341 340.389 C 55.254 341.292,56.000 342.204,56.000 342.415 C 56.000 342.627,56.270 342.800,56.600 342.800 C 56.930 342.800,57.200 343.087,57.200 343.437 C 57.200 343.788,57.560 344.169,58.000 344.284 C 58.440 344.399,58.800 344.730,58.800 345.020 C 58.800 345.309,59.160 345.660,59.600 345.800 C 60.040 345.940,60.400 346.227,60.400 346.440 C 60.400 346.652,60.715 346.941,61.100 347.083 C 61.485 347.224,62.196 347.759,62.681 348.270 C 63.165 348.782,63.930 349.200,64.381 349.200 C 64.842 349.200,65.200 349.462,65.200 349.800 C 65.200 350.133,65.556 350.400,66.000 350.400 C 66.533 350.400,66.800 350.667,66.800 351.200 C 66.800 351.733,67.067 352.000,67.600 352.000 C 68.133 352.000,68.400 352.267,68.400 352.800 C 68.400 353.333,68.667 353.600,69.200 353.600 C 69.733 353.600,70.000 353.867,70.000 354.400 C 70.000 354.840,70.258 355.200,70.573 355.200 C 70.888 355.200,71.260 355.560,71.400 356.000 C 71.540 356.440,72.002 356.800,72.427 356.800 C 72.933 356.800,73.200 357.076,73.200 357.600 C 73.200 358.248,73.467 358.400,74.600 358.400 C 75.733 358.400,76.000 358.552,76.000 359.200 C 76.000 359.733,76.267 360.000,76.800 360.000 C 77.333 360.000,77.600 360.267,77.600 360.800 C 77.600 361.317,77.867 361.600,78.353 361.600 C 78.770 361.600,79.200 361.957,79.316 362.400 C 79.476 363.013,79.862 363.200,80.963 363.200 C 82.133 363.200,82.400 363.348,82.400 364.000 C 82.400 364.533,82.667 364.800,83.200 364.800 C 83.652 364.800,84.000 365.067,84.000 365.413 C 84.000 365.749,84.315 366.141,84.700 366.282 C 85.085 366.424,85.540 366.771,85.711 367.054 C 85.882 367.336,86.647 367.685,87.411 367.828 C 88.222 367.981,88.800 368.325,88.800 368.657 C 88.800 368.969,89.115 369.341,89.500 369.482 C 89.885 369.624,90.344 369.978,90.520 370.270 C 90.696 370.561,91.350 370.800,91.973 370.800 C 92.770 370.800,93.169 371.037,93.316 371.600 C 93.476 372.213,93.862 372.400,94.963 372.400 C 96.133 372.400,96.400 372.548,96.400 373.200 C 96.400 373.717,96.667 374.000,97.153 374.000 C 97.570 374.000,98.000 374.357,98.116 374.800 C 98.276 375.413,98.662 375.600,99.763 375.600 C 100.933 375.600,101.200 375.748,101.200 376.400 C 101.200 377.067,101.467 377.200,102.800 377.200 C 104.133 377.200,104.400 377.333,104.400 378.000 C 104.400 378.667,104.667 378.800,106.000 378.800 C 107.333 378.800,107.600 378.933,107.600 379.600 C 107.600 380.252,107.867 380.400,109.037 380.400 C 110.138 380.400,110.524 380.587,110.684 381.200 C 110.839 381.794,111.230 382.000,112.200 382.000 C 113.170 382.000,113.561 382.206,113.716 382.800 C 113.875 383.406,114.262 383.600,115.316 383.600 C 116.370 383.600,116.757 383.794,116.916 384.400 C 117.076 385.013,117.462 385.200,118.563 385.200 C 119.525 385.200,120.000 385.384,120.000 385.757 C 120.000 386.491,120.884 386.800,122.986 386.800 C 124.370 386.800,124.748 386.956,124.916 387.600 C 125.076 388.213,125.462 388.400,126.563 388.400 C 127.525 388.400,128.000 388.584,128.000 388.957 C 128.000 389.672,128.877 390.000,130.790 390.000 C 131.776 390.000,132.396 390.212,132.545 390.600 C 132.711 391.033,133.390 391.200,134.987 391.200 C 136.933 391.200,137.200 391.296,137.200 392.000 C 137.200 392.711,137.467 392.800,139.600 392.800 C 141.733 392.800,142.000 392.889,142.000 393.600 C 142.000 394.333,142.267 394.400,145.200 394.400 C 148.133 394.400,148.400 394.467,148.400 395.200 C 148.400 395.928,148.667 396.000,151.353 396.000 C 153.970 396.000,154.331 396.091,154.516 396.800 C 154.702 397.510,155.062 397.600,157.716 397.600 C 160.370 397.600,160.730 397.690,160.916 398.400 C 161.110 399.142,161.462 399.200,165.763 399.200 C 168.588 399.200,170.400 399.356,170.400 399.600 C 170.400 399.863,180.600 400.000,200.200 400.000 C 219.800 400.000,230.000 399.863,230.000 399.600 C 230.000 399.357,231.746 399.200,234.437 399.200 C 238.538 399.200,238.891 399.139,239.084 398.400 C 239.275 397.672,239.630 397.600,243.047 397.600 C 246.533 397.600,246.800 397.543,246.800 396.800 C 246.800 396.070,247.067 396.000,249.837 396.000 C 252.538 396.000,252.898 395.911,253.084 395.200 C 253.263 394.514,253.630 394.400,255.647 394.400 C 257.733 394.400,258.000 394.309,258.000 393.600 C 258.000 392.889,258.267 392.800,260.400 392.800 C 262.267 392.800,262.978 392.622,263.600 392.000 C 264.133 391.467,264.933 391.200,266.000 391.200 C 267.156 391.200,267.600 391.033,267.600 390.600 C 267.600 390.145,268.093 390.000,269.637 390.000 C 271.296 390.000,271.712 389.860,271.872 389.248 C 272.022 388.672,272.546 388.449,274.101 388.300 C 275.336 388.181,276.322 387.848,276.611 387.452 C 276.882 387.082,277.647 386.800,278.382 386.800 C 279.338 386.800,279.729 386.592,279.884 386.000 C 280.043 385.394,280.430 385.200,281.484 385.200 C 282.538 385.200,282.925 385.006,283.084 384.400 C 283.243 383.794,283.630 383.600,284.684 383.600 C 285.738 383.600,286.125 383.406,286.284 382.800 C 286.448 382.173,286.830 382.000,288.047 382.000 C 289.067 382.000,289.875 381.725,290.400 381.200 C 290.840 380.760,291.470 380.400,291.800 380.400 C 292.130 380.400,292.760 380.040,293.200 379.600 C 293.640 379.160,294.360 378.800,294.800 378.800 C 295.333 378.800,295.600 378.533,295.600 378.000 C 295.600 377.333,295.867 377.200,297.200 377.200 C 298.533 377.200,298.800 377.067,298.800 376.400 C 298.800 375.733,299.067 375.600,300.400 375.600 C 301.733 375.600,302.000 375.467,302.000 374.800 C 302.000 374.155,302.267 374.000,303.373 374.000 C 304.395 374.000,304.811 373.795,305.000 373.200 C 305.140 372.760,305.602 372.400,306.027 372.400 C 306.533 372.400,306.800 372.124,306.800 371.600 C 306.800 370.951,307.067 370.800,308.213 370.800 C 309.099 370.800,309.711 370.577,309.855 370.200 C 309.982 369.870,310.336 369.600,310.643 369.600 C 310.949 369.600,311.200 369.240,311.200 368.800 C 311.200 368.148,311.467 368.000,312.637 368.000 C 313.738 368.000,314.124 367.813,314.284 367.200 C 314.400 366.757,314.830 366.400,315.247 366.400 C 315.733 366.400,316.000 366.117,316.000 365.600 C 316.000 364.948,316.267 364.800,317.437 364.800 C 318.538 364.800,318.924 364.613,319.084 364.000 C 319.200 363.557,319.630 363.200,320.047 363.200 C 320.533 363.200,320.800 362.917,320.800 362.400 C 320.800 361.867,321.067 361.600,321.600 361.600 C 322.133 361.600,322.400 361.333,322.400 360.800 C 322.400 360.155,322.667 360.000,323.773 360.000 C 324.769 360.000,325.212 359.792,325.386 359.243 C 325.518 358.827,325.981 358.394,326.413 358.281 C 326.846 358.167,327.200 357.788,327.200 357.437 C 327.200 357.067,327.535 356.800,328.000 356.800 C 328.533 356.800,328.800 356.533,328.800 356.000 C 328.800 355.556,329.067 355.200,329.400 355.200 C 329.733 355.200,330.000 354.844,330.000 354.400 C 330.000 353.903,330.267 353.600,330.704 353.600 C 331.091 353.600,331.632 353.240,331.907 352.800 C 332.226 352.290,332.840 352.000,333.603 352.000 C 334.533 352.000,334.800 351.822,334.800 351.200 C 334.800 350.667,335.067 350.400,335.600 350.400 C 336.040 350.400,336.400 350.151,336.400 349.847 C 336.400 349.542,336.760 349.199,337.200 349.084 C 337.640 348.969,338.000 348.609,338.000 348.284 C 338.000 347.959,338.360 347.599,338.800 347.484 C 339.240 347.369,339.600 347.009,339.600 346.684 C 339.600 346.359,339.960 345.999,340.400 345.884 C 340.840 345.769,341.200 345.388,341.200 345.037 C 341.200 344.667,341.535 344.400,342.000 344.400 C 342.533 344.400,342.800 344.133,342.800 343.600 C 342.800 343.067,343.067 342.800,343.600 342.800 C 344.117 342.800,344.400 342.533,344.400 342.047 C 344.400 341.630,344.757 341.200,345.200 341.084 C 345.640 340.969,346.000 340.609,346.000 340.284 C 346.000 339.959,346.360 339.599,346.800 339.484 C 347.240 339.369,347.600 339.009,347.600 338.684 C 347.600 338.359,347.960 337.999,348.400 337.884 C 348.840 337.769,349.200 337.388,349.200 337.037 C 349.200 336.687,349.470 336.400,349.800 336.400 C 350.133 336.400,350.400 336.044,350.400 335.600 C 350.400 335.067,350.667 334.800,351.200 334.800 C 351.867 334.800,352.000 334.533,352.000 333.200 C 352.000 331.867,352.133 331.600,352.800 331.600 C 353.333 331.600,353.600 331.333,353.600 330.800 C 353.600 330.267,353.867 330.000,354.400 330.000 C 354.844 330.000,355.200 329.733,355.200 329.400 C 355.200 329.067,355.556 328.800,356.000 328.800 C 356.533 328.800,356.800 328.533,356.800 328.000 C 356.800 327.550,357.067 327.200,357.410 327.200 C 357.745 327.200,358.182 326.775,358.379 326.255 C 358.577 325.735,359.023 325.200,359.369 325.067 C 359.752 324.920,360.000 324.348,360.000 323.613 C 360.000 322.667,360.176 322.400,360.800 322.400 C 361.333 322.400,361.600 322.133,361.600 321.600 C 361.600 321.067,361.867 320.800,362.400 320.800 C 362.933 320.800,363.200 320.533,363.200 320.000 C 363.200 319.560,363.451 319.200,363.757 319.200 C 364.402 319.200,364.800 318.348,364.800 316.967 C 364.800 316.267,365.021 316.000,365.600 316.000 C 366.117 316.000,366.400 315.733,366.400 315.247 C 366.400 314.830,366.757 314.400,367.200 314.284 C 367.813 314.124,368.000 313.738,368.000 312.637 C 368.000 311.467,368.148 311.200,368.800 311.200 C 369.252 311.200,369.600 310.933,369.600 310.587 C 369.600 310.251,369.870 309.871,370.200 309.745 C 370.570 309.603,370.800 308.995,370.800 308.157 C 370.800 307.067,370.957 306.800,371.600 306.800 C 372.176 306.800,372.400 306.533,372.400 305.847 C 372.400 305.230,372.682 304.819,373.200 304.684 C 373.783 304.532,374.000 304.138,374.000 303.237 C 374.000 302.267,374.172 302.000,374.800 302.000 C 375.467 302.000,375.600 301.733,375.600 300.400 C 375.600 299.067,375.733 298.800,376.400 298.800 C 377.067 298.800,377.200 298.533,377.200 297.200 C 377.200 295.867,377.333 295.600,378.000 295.600 C 378.667 295.600,378.800 295.333,378.800 294.000 C 378.800 292.667,378.933 292.400,379.600 292.400 C 380.242 292.400,380.400 292.133,380.400 291.047 C 380.400 290.030,380.599 289.641,381.200 289.484 C 381.806 289.325,382.000 288.938,382.000 287.884 C 382.000 286.830,382.194 286.443,382.800 286.284 C 383.413 286.124,383.600 285.738,383.600 284.637 C 383.600 283.467,383.748 283.200,384.400 283.200 C 385.063 283.200,385.200 282.933,385.200 281.647 C 385.200 280.430,385.373 280.048,386.000 279.884 C 386.592 279.729,386.800 279.338,386.800 278.382 C 386.800 277.647,387.082 276.882,387.452 276.611 C 387.848 276.322,388.181 275.336,388.300 274.101 C 388.449 272.546,388.672 272.022,389.248 271.872 C 389.857 271.712,390.000 271.296,390.000 269.680 C 390.000 268.276,390.178 267.617,390.600 267.455 C 391.033 267.289,391.200 266.610,391.200 265.013 C 391.200 263.067,391.296 262.800,392.000 262.800 C 392.711 262.800,392.800 262.533,392.800 260.400 C 392.800 258.267,392.889 258.000,393.600 258.000 C 394.309 258.000,394.400 257.733,394.400 255.647 C 394.400 253.630,394.514 253.263,395.200 253.084 C 395.910 252.898,396.000 252.538,396.000 249.884 C 396.000 247.230,396.090 246.870,396.800 246.684 C 397.525 246.494,397.600 246.138,397.600 242.884 C 397.600 239.630,397.675 239.274,398.400 239.084 C 399.142 238.890,399.200 238.538,399.200 234.237 C 399.200 231.412,399.356 229.600,399.600 229.600 C 399.863 229.600,400.000 219.467,400.000 200.000 C 400.000 180.533,399.863 170.400,399.600 170.400 C 399.359 170.400,399.200 168.732,399.200 166.196 C 399.200 162.487,399.106 161.912,398.400 161.307 C 397.737 160.739,397.600 160.127,397.600 157.725 C 397.600 155.238,397.487 154.768,396.800 154.400 C 396.118 154.035,396.000 153.562,396.000 151.186 C 396.000 148.667,395.923 148.400,395.200 148.400 C 394.467 148.400,394.400 148.133,394.400 145.200 C 394.400 142.267,394.333 142.000,393.600 142.000 C 392.889 142.000,392.800 141.733,392.800 139.600 C 392.800 137.467,392.711 137.200,392.000 137.200 C 391.299 137.200,391.200 136.933,391.200 135.043 C 391.200 133.494,391.031 132.821,390.600 132.655 C 390.270 132.529,390.000 131.992,390.000 131.463 C 390.000 129.649,389.500 128.000,388.950 128.000 C 388.585 128.000,388.400 127.516,388.400 126.563 C 388.400 125.492,388.208 125.075,387.648 124.928 C 387.072 124.778,386.849 124.254,386.700 122.699 C 386.581 121.464,386.248 120.478,385.852 120.189 C 385.482 119.918,385.200 119.153,385.200 118.418 C 385.200 117.462,384.992 117.071,384.400 116.916 C 383.794 116.757,383.600 116.370,383.600 115.316 C 383.600 114.262,383.406 113.875,382.800 113.716 C 382.199 113.559,382.000 113.170,382.000 112.153 C 382.000 111.067,381.842 110.800,381.200 110.800 C 380.533 110.800,380.400 110.533,380.400 109.200 C 380.400 107.867,380.267 107.600,379.600 107.600 C 378.933 107.600,378.800 107.333,378.800 106.000 C 378.800 104.667,378.667 104.400,378.000 104.400 C 377.333 104.400,377.200 104.133,377.200 102.800 C 377.200 101.467,377.067 101.200,376.400 101.200 C 375.778 101.200,375.600 100.933,375.600 100.003 C 375.600 99.240,375.310 98.626,374.800 98.307 C 374.360 98.032,374.000 97.491,374.000 97.104 C 374.000 96.667,373.697 96.400,373.200 96.400 C 372.548 96.400,372.400 96.133,372.400 94.963 C 372.400 93.862,372.213 93.476,371.600 93.316 C 371.157 93.200,370.800 92.770,370.800 92.353 C 370.800 91.939,370.530 91.600,370.200 91.600 C 369.796 91.600,369.600 91.196,369.600 90.363 C 369.600 89.462,369.383 89.068,368.800 88.916 C 368.357 88.800,368.000 88.370,368.000 87.953 C 368.000 87.467,367.717 87.200,367.200 87.200 C 366.548 87.200,366.400 86.933,366.400 85.763 C 366.400 84.662,366.213 84.276,365.600 84.116 C 365.157 84.000,364.800 83.570,364.800 83.153 C 364.800 82.667,364.517 82.400,364.000 82.400 C 363.348 82.400,363.200 82.133,363.200 80.963 C 363.200 79.862,363.013 79.476,362.400 79.316 C 361.957 79.200,361.600 78.770,361.600 78.353 C 361.600 77.867,361.317 77.600,360.800 77.600 C 360.267 77.600,360.000 77.333,360.000 76.800 C 360.000 76.267,359.733 76.000,359.200 76.000 C 358.572 76.000,358.400 75.733,358.400 74.763 C 358.400 73.862,358.183 73.468,357.600 73.316 C 357.157 73.200,356.800 72.770,356.800 72.353 C 356.800 71.931,356.520 71.600,356.163 71.600 C 355.812 71.600,355.431 71.240,355.316 70.800 C 355.200 70.357,354.770 70.000,354.353 70.000 C 353.867 70.000,353.600 69.717,353.600 69.200 C 353.600 68.667,353.333 68.400,352.800 68.400 C 352.267 68.400,352.000 68.133,352.000 67.600 C 352.000 67.067,351.733 66.800,351.200 66.800 C 350.667 66.800,350.400 66.533,350.400 66.000 C 350.400 65.556,350.133 65.200,349.800 65.200 C 349.470 65.200,349.200 64.861,349.200 64.447 C 349.200 64.032,348.859 63.604,348.442 63.495 C 347.993 63.378,347.573 62.787,347.410 62.045 C 347.259 61.357,346.790 60.609,346.367 60.383 C 345.945 60.157,345.600 59.708,345.600 59.386 C 345.600 59.064,345.342 58.800,345.027 58.800 C 344.712 58.800,344.340 58.440,344.200 58.000 C 344.060 57.560,343.709 57.200,343.420 57.200 C 343.130 57.200,342.799 56.840,342.684 56.400 C 342.569 55.960,342.188 55.600,341.837 55.600 C 341.487 55.600,341.200 55.330,341.200 55.000 C 341.200 54.670,340.952 54.400,340.649 54.400 C 340.346 54.400,339.843 54.016,339.531 53.547 C 339.171 53.004,338.510 52.676,337.717 52.647 C 337.030 52.621,336.474 52.510,336.482 52.400 C 336.555 51.285,336.288 50.800,335.600 50.800 C 335.156 50.800,334.800 50.533,334.800 50.200 C 334.800 49.867,334.444 49.600,334.000 49.600 C 333.467 49.600,333.200 49.333,333.200 48.800 C 333.200 48.267,332.933 48.000,332.400 48.000 C 331.867 48.000,331.600 47.733,331.600 47.200 C 331.600 46.667,331.333 46.400,330.800 46.400 C 330.267 46.400,330.000 46.133,330.000 45.600 C 330.000 45.160,329.742 44.800,329.427 44.800 C 329.112 44.800,328.740 44.440,328.600 44.000 C 328.460 43.560,328.088 43.200,327.773 43.200 C 327.458 43.200,326.840 42.840,326.400 42.400 C 325.960 41.960,325.240 41.600,324.800 41.600 C 324.267 41.600,324.000 41.333,324.000 40.800 C 324.000 40.267,323.733 40.000,323.200 40.000 C 322.667 40.000,322.400 39.733,322.400 39.200 C 322.400 38.667,322.133 38.400,321.600 38.400 C 321.160 38.400,320.800 38.149,320.800 37.843 C 320.800 37.198,319.948 36.800,318.567 36.800 C 317.867 36.800,317.600 36.579,317.600 36.000 C 317.600 35.483,317.333 35.200,316.847 35.200 C 316.420 35.200,315.999 34.839,315.876 34.368 C 315.725 33.792,315.371 33.559,314.729 33.612 C 313.103 33.746,312.800 33.619,312.800 32.800 C 312.800 32.267,312.533 32.000,312.000 32.000 C 311.560 32.000,311.200 31.750,311.200 31.445 C 311.200 31.126,310.602 30.777,309.800 30.626 C 308.962 30.469,308.400 30.130,308.400 29.782 C 308.400 29.462,308.061 29.200,307.647 29.200 C 307.230 29.200,306.800 28.843,306.684 28.400 C 306.524 27.787,306.138 27.600,305.037 27.600 C 303.867 27.600,303.600 27.452,303.600 26.800 C 303.600 26.133,303.333 26.000,302.000 26.000 C 300.667 26.000,300.400 25.867,300.400 25.200 C 300.400 24.683,300.133 24.400,299.647 24.400 C 299.230 24.400,298.800 24.043,298.684 23.600 C 298.524 22.987,298.138 22.800,297.037 22.800 C 295.867 22.800,295.600 22.652,295.600 22.000 C 295.600 21.333,295.333 21.200,294.000 21.200 C 292.667 21.200,292.400 21.067,292.400 20.400 C 292.400 19.755,292.133 19.600,291.027 19.600 C 290.005 19.600,289.589 19.395,289.400 18.800 C 289.212 18.209,288.795 18.000,287.800 18.000 C 286.805 18.000,286.388 17.791,286.200 17.200 C 286.016 16.620,285.595 16.400,284.669 16.400 C 283.826 16.400,283.223 16.129,282.893 15.600 C 282.502 14.974,281.960 14.800,280.397 14.800 C 278.626 14.800,278.400 14.704,278.400 13.948 C 278.400 13.192,278.236 13.122,276.958 13.329 C 275.758 13.524,275.482 13.434,275.314 12.792 C 275.091 11.942,273.071 11.379,271.394 11.699 C 270.645 11.842,270.400 11.719,270.400 11.196 C 270.400 10.699,269.958 10.432,268.844 10.253 C 267.988 10.117,267.183 9.733,267.056 9.402 C 266.890 8.969,266.219 8.800,264.659 8.800 C 262.830 8.800,262.461 8.676,262.284 8.000 C 262.100 7.295,261.738 7.200,259.237 7.200 C 256.667 7.200,256.400 7.125,256.400 6.400 C 256.400 5.693,256.133 5.600,254.096 5.600 C 252.226 5.600,251.698 5.450,251.293 4.800 C 250.858 4.103,250.360 4.000,247.443 4.000 C 244.430 4.000,244.072 3.920,243.884 3.200 C 243.693 2.470,243.338 2.400,239.837 2.400 C 236.267 2.400,236.000 2.344,236.000 1.600 C 236.000 0.846,235.733 0.800,231.400 0.800 C 228.600 0.800,226.800 0.643,226.800 0.400 C 226.800 0.137,217.667 0.000,200.200 0.000 C 182.733 0.000,173.600 0.137,173.600 0.400 M211.316 14.000 C 211.516 14.765,211.862 14.800,219.116 14.800 C 226.370 14.800,226.716 14.835,226.916 15.600 C 227.109 16.339,227.462 16.400,231.516 16.400 C 235.570 16.400,235.923 16.461,236.116 17.200 C 236.301 17.909,236.662 18.000,239.274 18.000 C 241.727 18.000,242.337 18.134,242.907 18.800 C 243.462 19.448,244.087 19.600,246.196 19.600 C 248.155 19.600,248.800 19.738,248.800 20.157 C 248.800 20.938,249.702 21.200,252.386 21.200 C 254.370 21.200,254.737 21.316,254.916 22.000 C 255.093 22.677,255.462 22.800,257.316 22.800 C 259.170 22.800,259.539 22.923,259.716 23.600 C 259.893 24.277,260.262 24.400,262.116 24.400 C 263.970 24.400,264.339 24.523,264.516 25.200 C 264.671 25.792,265.062 26.000,266.018 26.000 C 266.731 26.000,267.518 26.281,267.770 26.627 C 268.022 26.971,269.032 27.359,270.014 27.490 C 271.085 27.631,272.009 28.021,272.323 28.463 C 272.620 28.883,273.333 29.200,273.980 29.200 C 274.619 29.200,275.215 29.462,275.345 29.800 C 275.487 30.171,276.096 30.400,276.941 30.400 C 277.970 30.400,278.358 30.597,278.516 31.200 C 278.676 31.811,279.062 32.000,280.148 32.000 C 281.162 32.000,281.695 32.230,282.000 32.800 C 282.268 33.301,282.838 33.600,283.525 33.600 C 284.129 33.600,284.930 33.960,285.307 34.400 C 285.684 34.840,286.444 35.200,286.996 35.200 C 287.733 35.200,288.000 35.413,288.000 36.000 C 288.000 36.667,288.267 36.800,289.600 36.800 C 290.933 36.800,291.200 36.933,291.200 37.600 C 291.200 38.242,291.467 38.400,292.553 38.400 C 293.570 38.400,293.959 38.599,294.116 39.200 C 294.276 39.813,294.662 40.000,295.763 40.000 C 296.933 40.000,297.200 40.148,297.200 40.800 C 297.200 41.317,297.467 41.600,297.953 41.600 C 298.370 41.600,298.800 41.957,298.916 42.400 C 299.076 43.013,299.462 43.200,300.563 43.200 C 301.733 43.200,302.000 43.348,302.000 44.000 C 302.000 44.533,302.267 44.800,302.800 44.800 C 303.240 44.800,303.600 45.051,303.600 45.357 C 303.600 46.002,304.452 46.400,305.833 46.400 C 306.533 46.400,306.800 46.621,306.800 47.200 C 306.800 47.717,307.067 48.000,307.553 48.000 C 307.970 48.000,308.400 48.357,308.516 48.800 C 308.668 49.383,309.062 49.600,309.963 49.600 C 310.796 49.600,311.200 49.796,311.200 50.200 C 311.200 50.533,311.556 50.800,312.000 50.800 C 312.533 50.800,312.800 51.067,312.800 51.600 C 312.800 52.117,313.067 52.400,313.553 52.400 C 313.970 52.400,314.400 52.757,314.516 53.200 C 314.636 53.660,315.062 54.000,315.516 54.000 C 315.970 54.000,316.396 54.340,316.516 54.800 C 316.668 55.383,317.062 55.600,317.963 55.600 C 318.933 55.600,319.200 55.772,319.200 56.400 C 319.200 56.933,319.467 57.200,320.000 57.200 C 320.533 57.200,320.800 57.467,320.800 58.000 C 320.800 58.533,321.067 58.800,321.600 58.800 C 322.133 58.800,322.400 59.067,322.400 59.600 C 322.400 60.133,322.667 60.400,323.200 60.400 C 323.733 60.400,324.000 60.667,324.000 61.200 C 324.000 61.733,324.267 62.000,324.800 62.000 C 325.265 62.000,325.600 62.267,325.600 62.637 C 325.600 62.988,325.960 63.369,326.400 63.484 C 326.840 63.599,327.200 63.930,327.200 64.220 C 327.200 64.509,327.543 64.855,327.963 64.988 C 328.383 65.121,328.827 65.494,328.950 65.815 C 329.074 66.137,329.438 66.400,329.760 66.400 C 330.083 66.400,330.460 66.760,330.600 67.200 C 330.740 67.640,331.014 68.000,331.209 68.000 C 331.677 68.000,333.600 69.933,333.600 70.404 C 333.600 70.606,333.960 70.965,334.400 71.200 C 334.840 71.435,335.200 71.892,335.200 72.214 C 335.200 72.536,335.449 72.800,335.753 72.800 C 336.058 72.800,336.401 73.160,336.516 73.600 C 336.631 74.040,337.012 74.400,337.363 74.400 C 337.733 74.400,338.000 74.735,338.000 75.200 C 338.000 75.733,338.267 76.000,338.800 76.000 C 339.333 76.000,339.600 76.267,339.600 76.800 C 339.600 77.333,339.867 77.600,340.400 77.600 C 340.933 77.600,341.200 77.867,341.200 78.400 C 341.200 78.933,341.467 79.200,342.000 79.200 C 342.533 79.200,342.800 79.467,342.800 80.000 C 342.800 80.533,343.067 80.800,343.600 80.800 C 344.133 80.800,344.400 81.067,344.400 81.600 C 344.400 82.133,344.667 82.400,345.200 82.400 C 345.845 82.400,346.000 82.667,346.000 83.773 C 346.000 84.769,346.208 85.212,346.757 85.386 C 347.173 85.518,347.606 85.981,347.719 86.413 C 347.833 86.846,348.212 87.200,348.563 87.200 C 348.933 87.200,349.200 87.535,349.200 88.000 C 349.200 88.440,349.462 88.800,349.782 88.800 C 350.130 88.800,350.469 89.362,350.626 90.200 C 350.777 91.002,351.126 91.600,351.445 91.600 C 351.750 91.600,352.000 91.874,352.000 92.210 C 352.000 92.545,352.447 92.990,352.992 93.197 C 353.652 93.448,353.906 93.780,353.750 94.187 C 353.584 94.618,353.765 94.800,354.357 94.800 C 355.074 94.800,355.200 95.040,355.200 96.400 C 355.200 97.733,355.333 98.000,356.000 98.000 C 356.533 98.000,356.800 98.267,356.800 98.800 C 356.800 99.240,357.160 99.960,357.600 100.400 C 358.040 100.840,358.400 101.560,358.400 102.000 C 358.400 102.533,358.667 102.800,359.200 102.800 C 359.845 102.800,360.000 103.067,360.000 104.173 C 360.000 105.195,360.205 105.611,360.800 105.800 C 361.240 105.940,361.600 106.400,361.600 106.824 C 361.600 107.247,361.960 107.818,362.400 108.093 C 362.840 108.368,363.200 108.999,363.200 109.496 C 363.200 110.133,363.436 110.400,364.000 110.400 C 364.667 110.400,364.800 110.667,364.800 112.000 C 364.800 113.333,364.933 113.600,365.600 113.600 C 366.267 113.600,366.400 113.867,366.400 115.200 C 366.400 116.533,366.533 116.800,367.200 116.800 C 367.867 116.800,368.000 117.067,368.000 118.400 C 368.000 119.733,368.133 120.000,368.800 120.000 C 369.467 120.000,369.600 120.267,369.600 121.600 C 369.600 122.696,369.774 123.200,370.154 123.200 C 370.525 123.200,370.798 123.925,370.983 125.400 C 371.197 127.111,371.411 127.600,371.948 127.600 C 372.505 127.600,372.607 127.877,372.473 129.025 C 372.334 130.214,372.447 130.487,373.153 130.672 C 373.619 130.794,374.019 131.097,374.042 131.347 C 374.065 131.596,374.127 132.502,374.179 133.360 C 374.235 134.258,374.556 135.125,374.938 135.404 C 375.344 135.701,375.600 136.451,375.600 137.344 C 375.600 138.533,375.747 138.800,376.400 138.800 C 377.105 138.800,377.200 139.067,377.200 141.037 C 377.200 142.938,377.320 143.306,378.000 143.484 C 378.704 143.668,378.800 144.030,378.800 146.484 C 378.800 148.938,378.896 149.300,379.600 149.484 C 380.283 149.663,380.400 150.030,380.400 151.985 C 380.400 153.768,380.577 154.437,381.200 155.000 C 381.869 155.606,382.000 156.232,382.000 158.835 C 382.000 161.595,382.090 161.975,382.800 162.200 C 383.526 162.430,383.600 162.805,383.600 166.227 C 383.600 169.733,383.657 170.000,384.400 170.000 C 385.165 170.000,385.200 170.267,385.200 176.173 C 385.200 181.995,385.246 182.361,386.000 182.600 C 387.253 182.998,387.253 216.747,386.000 218.000 C 385.276 218.724,385.200 219.333,385.200 224.400 C 385.200 229.733,385.162 230.000,384.400 230.000 C 383.653 230.000,383.600 230.267,383.600 234.000 C 383.600 237.139,383.481 238.000,383.047 238.000 C 382.293 238.000,382.012 239.267,382.005 242.700 C 382.001 245.332,381.926 245.600,381.200 245.600 C 380.472 245.600,380.400 245.867,380.400 248.573 C 380.400 251.195,380.305 251.576,379.600 251.800 C 378.932 252.012,378.800 252.405,378.800 254.180 C 378.800 255.970,378.673 256.340,378.000 256.516 C 377.323 256.693,377.200 257.062,377.200 258.916 C 377.200 260.770,377.077 261.139,376.400 261.316 C 375.720 261.494,375.600 261.862,375.600 263.763 C 375.600 265.774,375.515 266.000,374.753 266.000 C 374.050 266.000,373.942 266.182,374.112 267.075 C 374.362 268.379,374.089 269.200,373.407 269.200 C 372.787 269.200,372.316 271.326,372.646 272.639 C 372.840 273.414,372.732 273.600,372.086 273.600 C 371.216 273.600,370.800 274.321,370.800 275.833 C 370.800 276.426,370.568 276.800,370.200 276.800 C 369.767 276.800,369.600 277.244,369.600 278.400 C 369.600 279.733,369.467 280.000,368.800 280.000 C 368.133 280.000,368.000 280.267,368.000 281.600 C 368.000 282.933,367.867 283.200,367.200 283.200 C 366.533 283.200,366.400 283.467,366.400 284.800 C 366.400 286.133,366.267 286.400,365.600 286.400 C 364.933 286.400,364.800 286.667,364.800 288.000 C 364.800 289.333,364.667 289.600,364.000 289.600 C 363.358 289.600,363.200 289.867,363.200 290.953 C 363.200 291.970,363.001 292.359,362.400 292.516 C 361.787 292.676,361.600 293.062,361.600 294.163 C 361.600 295.333,361.452 295.600,360.800 295.600 C 360.283 295.600,360.000 295.867,360.000 296.353 C 360.000 296.770,359.643 297.200,359.200 297.316 C 358.587 297.476,358.400 297.862,358.400 298.963 C 358.400 300.133,358.252 300.400,357.600 300.400 C 357.067 300.400,356.800 300.667,356.800 301.200 C 356.800 301.640,356.549 302.000,356.243 302.000 C 355.598 302.000,355.200 302.852,355.200 304.233 C 355.200 304.951,354.982 305.200,354.353 305.200 C 353.704 305.200,353.555 305.386,353.716 306.000 C 353.869 306.584,353.728 306.800,353.194 306.800 C 352.427 306.800,351.708 308.804,352.194 309.590 C 352.333 309.816,352.175 310.000,351.842 310.000 C 351.160 310.000,349.445 311.585,349.071 312.560 C 348.936 312.912,348.549 313.200,348.213 313.200 C 347.779 313.200,347.600 313.609,347.600 314.600 C 347.600 315.733,347.448 316.000,346.800 316.000 C 346.267 316.000,346.000 316.267,346.000 316.800 C 346.000 317.333,345.733 317.600,345.200 317.600 C 344.667 317.600,344.400 317.867,344.400 318.400 C 344.400 318.933,344.133 319.200,343.600 319.200 C 343.067 319.200,342.800 319.467,342.800 320.000 C 342.800 320.452,342.533 320.800,342.187 320.800 C 341.851 320.800,341.457 321.115,341.314 321.500 C 341.170 321.885,340.726 322.435,340.326 322.723 C 339.907 323.024,339.600 323.744,339.600 324.423 C 339.600 325.333,339.419 325.600,338.800 325.600 C 338.267 325.600,338.000 325.867,338.000 326.400 C 338.000 326.933,337.733 327.200,337.200 327.200 C 336.667 327.200,336.400 327.467,336.400 328.000 C 336.400 328.533,336.133 328.800,335.600 328.800 C 335.160 328.800,334.821 328.935,334.847 329.100 C 334.989 329.995,334.711 330.400,333.957 330.400 C 333.389 330.400,333.186 330.587,333.335 330.975 C 333.479 331.351,333.252 331.593,332.678 331.675 C 332.129 331.753,331.753 332.129,331.675 332.678 C 331.593 333.252,331.351 333.479,330.975 333.335 C 330.587 333.186,330.400 333.389,330.400 333.957 C 330.400 334.533,330.147 334.800,329.600 334.800 C 329.067 334.800,328.800 335.067,328.800 335.600 C 328.800 336.133,328.533 336.400,328.000 336.400 C 327.467 336.400,327.200 336.667,327.200 337.200 C 327.200 337.733,326.933 338.000,326.400 338.000 C 325.867 338.000,325.600 338.267,325.600 338.800 C 325.600 339.452,325.333 339.600,324.163 339.600 C 323.062 339.600,322.676 339.787,322.516 340.400 C 322.400 340.843,321.970 341.200,321.553 341.200 C 321.067 341.200,320.800 341.483,320.800 342.000 C 320.800 342.533,320.533 342.800,320.000 342.800 C 319.467 342.800,319.200 343.067,319.200 343.600 C 319.200 344.133,318.933 344.400,318.400 344.400 C 317.867 344.400,317.600 344.667,317.600 345.200 C 317.600 345.733,317.333 346.000,316.800 346.000 C 316.267 346.000,316.000 346.267,316.000 346.800 C 316.000 347.445,315.733 347.600,314.627 347.600 C 313.605 347.600,313.189 347.805,313.000 348.400 C 312.860 348.840,312.554 349.200,312.319 349.200 C 311.715 349.200,310.000 351.129,310.000 351.808 C 310.000 352.148,309.759 352.283,309.399 352.144 C 308.354 351.743,306.800 352.356,306.800 353.170 C 306.800 353.728,306.591 353.871,306.000 353.716 C 305.386 353.555,305.200 353.704,305.200 354.353 C 305.200 355.058,304.960 355.200,303.763 355.200 C 302.662 355.200,302.276 355.387,302.116 356.000 C 302.000 356.443,301.570 356.800,301.153 356.800 C 300.667 356.800,300.400 357.083,300.400 357.600 C 300.400 358.252,300.133 358.400,298.963 358.400 C 297.862 358.400,297.476 358.587,297.316 359.200 C 297.201 359.640,296.782 360.000,296.386 360.000 C 295.238 360.000,294.400 360.440,294.400 361.043 C 294.400 361.349,294.023 361.600,293.563 361.600 C 293.062 361.600,292.641 361.921,292.516 362.400 C 292.359 363.001,291.970 363.200,290.953 363.200 C 289.867 363.200,289.600 363.358,289.600 364.000 C 289.600 364.667,289.333 364.800,288.000 364.800 C 286.667 364.800,286.400 364.933,286.400 365.600 C 286.400 366.267,286.133 366.400,284.800 366.400 C 283.467 366.400,283.200 366.533,283.200 367.200 C 283.200 367.867,282.933 368.000,281.600 368.000 C 280.267 368.000,280.000 368.133,280.000 368.800 C 280.000 369.467,279.733 369.600,278.400 369.600 C 277.244 369.600,276.800 369.767,276.800 370.200 C 276.800 370.568,276.426 370.800,275.833 370.800 C 274.333 370.800,273.600 371.214,273.600 372.061 C 273.600 372.727,273.407 372.800,272.235 372.580 C 270.608 372.275,269.200 372.648,269.200 373.384 C 269.200 374.088,268.393 374.364,267.075 374.112 C 266.182 373.942,266.000 374.050,266.000 374.753 C 266.000 375.521,265.777 375.600,263.600 375.600 C 261.467 375.600,261.200 375.689,261.200 376.400 C 261.200 377.105,260.933 377.200,258.963 377.200 C 257.062 377.200,256.694 377.320,256.516 378.000 C 256.340 378.674,255.970 378.800,254.167 378.800 C 252.438 378.800,251.946 378.953,251.600 379.600 C 251.235 380.282,250.762 380.400,248.386 380.400 C 245.867 380.400,245.600 380.477,245.600 381.200 C 245.600 381.941,245.333 382.000,242.014 382.000 C 238.838 382.000,238.379 382.091,238.000 382.800 C 237.618 383.513,237.162 383.600,233.786 383.600 C 230.267 383.600,230.000 383.656,230.000 384.400 C 230.000 385.164,229.733 385.200,224.014 385.200 C 218.438 385.200,217.999 385.255,217.600 386.000 C 216.928 387.256,182.999 387.256,182.600 386.000 C 182.361 385.246,181.995 385.200,176.173 385.200 C 170.267 385.200,170.000 385.165,170.000 384.400 C 170.000 383.657,169.733 383.600,166.247 383.600 C 162.830 383.600,162.475 383.528,162.284 382.800 C 162.099 382.091,161.738 382.000,159.134 382.000 C 156.626 382.000,156.119 381.882,155.693 381.200 C 155.275 380.532,154.760 380.400,152.559 380.400 C 150.262 380.400,149.898 380.298,149.716 379.600 C 149.539 378.925,149.170 378.800,147.353 378.800 C 145.733 378.800,145.002 378.602,144.400 378.000 C 143.791 377.391,143.067 377.200,141.363 377.200 C 139.462 377.200,139.094 377.080,138.916 376.400 C 138.752 375.773,138.370 375.600,137.153 375.600 C 136.078 375.600,135.600 375.425,135.600 375.032 C 135.600 374.487,134.059 373.959,132.800 374.072 C 131.451 374.193,130.883 373.959,130.684 373.200 C 130.524 372.587,130.138 372.400,129.037 372.400 C 128.084 372.400,127.600 372.215,127.600 371.850 C 127.600 371.302,125.952 370.800,124.150 370.800 C 123.572 370.800,123.200 370.565,123.200 370.200 C 123.200 369.767,122.756 369.600,121.600 369.600 C 120.267 369.600,120.000 369.467,120.000 368.800 C 120.000 368.133,119.733 368.000,118.400 368.000 C 117.067 368.000,116.800 367.867,116.800 367.200 C 116.800 366.533,116.533 366.400,115.200 366.400 C 113.867 366.400,113.600 366.267,113.600 365.600 C 113.600 364.933,113.333 364.800,112.000 364.800 C 110.667 364.800,110.400 364.667,110.400 364.000 C 110.400 363.483,110.133 363.200,109.647 363.200 C 109.230 363.200,108.800 362.843,108.684 362.400 C 108.534 361.826,108.138 361.600,107.284 361.600 C 106.430 361.600,106.034 361.374,105.884 360.800 C 105.724 360.187,105.338 360.000,104.237 360.000 C 103.067 360.000,102.800 359.852,102.800 359.200 C 102.800 358.703,102.533 358.400,102.096 358.400 C 101.709 358.400,101.168 358.040,100.893 357.600 C 100.574 357.090,99.960 356.800,99.197 356.800 C 98.267 356.800,98.000 356.622,98.000 356.000 C 98.000 355.535,97.733 355.200,97.363 355.200 C 97.013 355.200,96.265 354.837,95.700 354.393 C 95.098 353.919,94.370 353.683,93.937 353.820 C 93.376 353.998,93.200 353.847,93.200 353.190 C 93.200 352.662,92.889 352.244,92.400 352.116 C 91.960 352.001,91.600 351.678,91.600 351.398 C 91.600 351.118,90.970 350.771,90.200 350.626 C 89.362 350.469,88.800 350.130,88.800 349.782 C 88.800 349.462,88.440 349.200,88.000 349.200 C 87.467 349.200,87.200 348.933,87.200 348.400 C 87.200 347.883,86.933 347.600,86.447 347.600 C 86.030 347.600,85.600 347.243,85.484 346.800 C 85.324 346.187,84.938 346.000,83.837 346.000 C 82.667 346.000,82.400 345.852,82.400 345.200 C 82.400 344.667,82.133 344.400,81.600 344.400 C 81.067 344.400,80.800 344.133,80.800 343.600 C 80.800 343.067,80.533 342.800,80.000 342.800 C 79.467 342.800,79.200 342.533,79.200 342.000 C 79.200 341.467,78.933 341.200,78.400 341.200 C 77.867 341.200,77.600 340.933,77.600 340.400 C 77.600 339.867,77.333 339.600,76.800 339.600 C 76.267 339.600,76.000 339.333,76.000 338.800 C 76.000 338.267,75.733 338.000,75.200 338.000 C 74.735 338.000,74.400 337.733,74.400 337.363 C 74.400 337.012,74.040 336.631,73.600 336.516 C 73.160 336.401,72.800 336.070,72.800 335.780 C 72.800 335.491,72.440 335.140,72.000 335.000 C 71.560 334.860,71.200 334.573,71.200 334.360 C 71.200 334.148,70.912 333.864,70.560 333.729 C 69.764 333.424,68.000 331.687,68.000 331.209 C 68.000 331.014,67.640 330.740,67.200 330.600 C 66.760 330.460,66.400 330.083,66.400 329.760 C 66.400 329.438,66.137 329.074,65.815 328.950 C 65.494 328.827,65.121 328.383,64.988 327.963 C 64.855 327.543,64.488 327.200,64.173 327.200 C 63.858 327.200,63.600 326.913,63.600 326.563 C 63.600 326.212,63.240 325.831,62.800 325.716 C 62.357 325.600,62.000 325.170,62.000 324.753 C 62.000 324.267,61.717 324.000,61.200 324.000 C 60.667 324.000,60.400 323.733,60.400 323.200 C 60.400 322.667,60.133 322.400,59.600 322.400 C 59.067 322.400,58.800 322.133,58.800 321.600 C 58.800 321.067,58.533 320.800,58.000 320.800 C 57.467 320.800,57.200 320.533,57.200 320.000 C 57.200 319.467,56.933 319.200,56.400 319.200 C 55.867 319.200,55.600 318.933,55.600 318.400 C 55.600 317.867,55.333 317.600,54.800 317.600 C 54.148 317.600,54.000 317.333,54.000 316.163 C 54.000 315.062,53.813 314.676,53.200 314.516 C 52.757 314.400,52.400 313.970,52.400 313.553 C 52.400 313.067,52.117 312.800,51.600 312.800 C 51.067 312.800,50.800 312.533,50.800 312.000 C 50.800 311.556,50.533 311.200,50.200 311.200 C 49.870 311.200,49.600 310.855,49.600 310.433 C 49.600 309.241,49.169 308.400,48.557 308.400 C 48.251 308.400,48.000 308.040,48.000 307.600 C 48.000 307.079,47.733 306.800,47.235 306.800 C 46.655 306.800,46.405 306.415,46.200 305.200 C 46.034 304.216,45.712 303.600,45.365 303.600 C 45.054 303.600,44.800 303.240,44.800 302.800 C 44.800 302.267,44.533 302.000,44.000 302.000 C 43.348 302.000,43.200 301.733,43.200 300.563 C 43.200 299.462,43.013 299.076,42.400 298.916 C 41.957 298.800,41.600 298.370,41.600 297.953 C 41.600 297.467,41.317 297.200,40.800 297.200 C 40.148 297.200,40.000 296.933,40.000 295.763 C 40.000 294.662,39.813 294.276,39.200 294.116 C 38.599 293.959,38.400 293.570,38.400 292.553 C 38.400 291.467,38.242 291.200,37.600 291.200 C 37.021 291.200,36.800 290.933,36.800 290.233 C 36.800 288.852,36.402 288.000,35.757 288.000 C 35.451 288.000,35.200 287.640,35.200 287.200 C 35.200 286.667,34.933 286.400,34.400 286.400 C 33.733 286.400,33.600 286.133,33.600 284.800 C 33.600 283.467,33.467 283.200,32.800 283.200 C 32.119 283.200,32.000 282.933,32.000 281.403 C 32.000 280.040,31.807 279.486,31.200 279.107 C 30.637 278.756,30.400 278.174,30.400 277.147 C 30.400 276.217,30.182 275.602,29.800 275.455 C 29.450 275.321,29.200 274.722,29.200 274.016 C 29.200 273.240,28.913 272.628,28.400 272.307 C 27.866 271.974,27.600 271.374,27.600 270.504 C 27.600 269.656,27.405 269.200,27.043 269.200 C 26.320 269.200,26.000 268.320,26.000 266.330 C 26.000 265.062,25.832 264.681,25.200 264.516 C 24.523 264.339,24.400 263.970,24.400 262.116 C 24.400 260.262,24.277 259.893,23.600 259.716 C 22.923 259.539,22.800 259.170,22.800 257.316 C 22.800 255.462,22.677 255.093,22.000 254.916 C 21.328 254.740,21.200 254.370,21.200 252.607 C 21.200 251.114,20.969 250.214,20.400 249.491 C 19.826 248.762,19.600 247.868,19.600 246.333 C 19.600 244.626,19.438 244.091,18.800 243.693 C 18.101 243.256,18.000 242.760,18.000 239.759 C 18.000 236.662,17.922 236.305,17.200 236.116 C 16.461 235.923,16.400 235.570,16.400 231.516 C 16.400 227.462,16.339 227.109,15.600 226.916 C 14.838 226.717,14.800 226.370,14.800 219.553 C 14.800 212.933,14.740 212.340,14.000 211.600 C 12.754 210.354,12.754 189.010,14.000 188.684 C 14.765 188.484,14.800 188.138,14.800 180.837 C 14.800 173.467,14.828 173.200,15.600 173.200 C 16.353 173.200,16.400 172.933,16.400 168.647 C 16.400 164.430,16.459 164.078,17.200 163.884 C 17.910 163.698,18.000 163.338,18.000 160.684 C 18.000 158.030,18.090 157.670,18.800 157.484 C 19.510 157.298,19.600 156.938,19.600 154.284 C 19.600 151.630,19.690 151.270,20.400 151.084 C 21.104 150.900,21.200 150.538,21.200 148.084 C 21.200 145.630,21.296 145.268,22.000 145.084 C 22.677 144.907,22.800 144.538,22.800 142.684 C 22.800 140.830,22.923 140.461,23.600 140.284 C 24.280 140.106,24.400 139.738,24.400 137.837 C 24.400 135.867,24.495 135.600,25.200 135.600 C 25.867 135.600,26.000 135.333,26.000 134.000 C 26.000 132.904,26.174 132.400,26.553 132.400 C 27.178 132.400,27.586 131.203,27.595 129.347 C 27.599 128.432,27.816 128.037,28.400 127.884 C 29.013 127.724,29.200 127.338,29.200 126.237 C 29.200 125.226,29.378 124.800,29.800 124.800 C 30.233 124.800,30.400 124.356,30.400 123.200 C 30.400 121.867,30.533 121.600,31.200 121.600 C 31.867 121.600,32.000 121.333,32.000 120.000 C 32.000 118.667,32.133 118.400,32.800 118.400 C 33.467 118.400,33.600 118.133,33.600 116.800 C 33.600 115.467,33.733 115.200,34.400 115.200 C 35.067 115.200,35.200 114.933,35.200 113.600 C 35.200 112.267,35.333 112.000,36.000 112.000 C 36.642 112.000,36.800 111.733,36.800 110.647 C 36.800 109.630,36.999 109.241,37.600 109.084 C 38.213 108.924,38.400 108.538,38.400 107.437 C 38.400 106.267,38.548 106.000,39.200 106.000 C 39.729 106.000,40.000 105.733,40.000 105.214 C 40.000 104.782,40.360 104.235,40.800 104.000 C 41.313 103.726,41.600 103.162,41.600 102.433 C 41.600 101.630,41.836 101.232,42.400 101.084 C 43.013 100.924,43.200 100.538,43.200 99.437 C 43.200 98.267,43.348 98.000,44.000 98.000 C 44.517 98.000,44.800 97.733,44.800 97.247 C 44.800 96.830,45.157 96.400,45.600 96.284 C 46.213 96.124,46.400 95.738,46.400 94.637 C 46.400 93.467,46.548 93.200,47.200 93.200 C 47.733 93.200,48.000 92.933,48.000 92.400 C 48.000 91.867,48.267 91.600,48.800 91.600 C 49.333 91.600,49.600 91.333,49.600 90.800 C 49.600 90.356,49.867 90.000,50.200 90.000 C 50.619 90.000,50.800 89.578,50.800 88.600 C 50.800 87.467,50.952 87.200,51.600 87.200 C 52.133 87.200,52.400 86.933,52.400 86.400 C 52.400 85.867,52.667 85.600,53.200 85.600 C 53.733 85.600,54.000 85.333,54.000 84.800 C 54.000 84.267,54.267 84.000,54.800 84.000 C 55.329 84.000,55.600 83.733,55.600 83.214 C 55.600 82.782,55.960 82.235,56.400 82.000 C 56.924 81.720,57.200 81.162,57.200 80.386 C 57.200 79.467,57.380 79.200,58.000 79.200 C 58.533 79.200,58.800 78.933,58.800 78.400 C 58.800 77.867,59.067 77.600,59.600 77.600 C 60.133 77.600,60.400 77.333,60.400 76.800 C 60.400 76.267,60.667 76.000,61.200 76.000 C 61.733 76.000,62.000 75.733,62.000 75.200 C 62.000 74.667,62.267 74.400,62.800 74.400 C 63.333 74.400,63.600 74.133,63.600 73.600 C 63.600 73.067,63.867 72.800,64.400 72.800 C 64.933 72.800,65.200 72.533,65.200 72.000 C 65.200 71.467,65.467 71.200,66.000 71.200 C 66.440 71.200,66.800 70.951,66.800 70.647 C 66.800 70.342,67.160 69.999,67.600 69.884 C 68.040 69.769,68.400 69.409,68.400 69.084 C 68.400 68.759,68.760 68.399,69.200 68.284 C 69.640 68.169,70.000 67.788,70.000 67.437 C 70.000 67.087,70.270 66.800,70.600 66.800 C 70.933 66.800,71.200 66.444,71.200 66.000 C 71.200 65.467,71.467 65.200,72.000 65.200 C 72.533 65.200,72.800 64.933,72.800 64.400 C 72.800 63.867,73.067 63.600,73.600 63.600 C 74.133 63.600,74.400 63.333,74.400 62.800 C 74.400 62.267,74.667 62.000,75.200 62.000 C 75.733 62.000,76.000 61.733,76.000 61.200 C 76.000 60.667,76.267 60.400,76.800 60.400 C 77.333 60.400,77.600 60.133,77.600 59.600 C 77.600 59.067,77.867 58.800,78.400 58.800 C 78.933 58.800,79.200 58.533,79.200 58.000 C 79.200 57.355,79.467 57.200,80.573 57.200 C 81.595 57.200,82.011 56.995,82.200 56.400 C 82.340 55.960,82.802 55.600,83.227 55.600 C 83.733 55.600,84.000 55.324,84.000 54.800 C 84.000 54.267,84.267 54.000,84.800 54.000 C 85.333 54.000,85.600 53.733,85.600 53.200 C 85.600 52.667,85.867 52.400,86.400 52.400 C 86.933 52.400,87.200 52.133,87.200 51.600 C 87.200 50.952,87.467 50.800,88.600 50.800 C 89.578 50.800,90.000 50.619,90.000 50.200 C 90.000 49.867,90.356 49.600,90.800 49.600 C 91.318 49.600,91.600 49.333,91.600 48.845 C 91.600 48.298,91.987 48.016,93.000 47.826 C 93.770 47.682,94.400 47.387,94.400 47.172 C 94.400 46.956,94.850 46.609,95.400 46.400 C 95.950 46.191,96.400 45.745,96.400 45.410 C 96.400 45.067,96.750 44.800,97.200 44.800 C 97.640 44.800,98.360 44.440,98.800 44.000 C 99.240 43.560,99.960 43.200,100.400 43.200 C 100.933 43.200,101.200 42.933,101.200 42.400 C 101.200 41.748,101.467 41.600,102.637 41.600 C 103.738 41.600,104.124 41.413,104.284 40.800 C 104.400 40.357,104.830 40.000,105.247 40.000 C 105.733 40.000,106.000 39.717,106.000 39.200 C 106.000 38.548,106.267 38.400,107.437 38.400 C 108.538 38.400,108.924 38.213,109.084 37.600 C 109.241 36.999,109.630 36.800,110.647 36.800 C 111.733 36.800,112.000 36.642,112.000 36.000 C 112.000 35.333,112.267 35.200,113.600 35.200 C 114.933 35.200,115.200 35.067,115.200 34.400 C 115.200 33.733,115.467 33.600,116.800 33.600 C 118.133 33.600,118.400 33.467,118.400 32.800 C 118.400 32.133,118.667 32.000,120.000 32.000 C 121.333 32.000,121.600 31.867,121.600 31.200 C 121.600 30.533,121.867 30.400,123.200 30.400 C 124.356 30.400,124.800 30.233,124.800 29.800 C 124.800 29.378,125.226 29.200,126.237 29.200 C 127.338 29.200,127.724 29.013,127.884 28.400 C 128.047 27.777,128.430 27.600,129.614 27.600 C 131.523 27.600,132.400 27.272,132.400 26.557 C 132.400 26.174,132.899 26.000,134.000 26.000 C 135.333 26.000,135.600 25.867,135.600 25.200 C 135.600 24.495,135.867 24.400,137.837 24.400 C 139.738 24.400,140.106 24.280,140.284 23.600 C 140.463 22.914,140.830 22.800,142.851 22.800 C 144.713 22.800,145.352 22.632,145.893 22.000 C 146.431 21.371,147.073 21.200,148.889 21.200 C 150.933 21.200,151.200 21.108,151.200 20.400 C 151.200 19.670,151.467 19.600,154.237 19.600 C 156.938 19.600,157.298 19.511,157.484 18.800 C 157.670 18.090,158.030 18.000,160.684 18.000 C 163.338 18.000,163.698 17.910,163.884 17.200 C 164.078 16.459,164.430 16.400,168.647 16.400 C 172.933 16.400,173.200 16.353,173.200 15.600 C 173.200 14.828,173.467 14.800,180.837 14.800 C 188.138 14.800,188.484 14.765,188.684 14.000 C 188.887 13.224,189.230 13.200,200.000 13.200 C 210.770 13.200,211.113 13.224,211.316 14.000 M140.516 84.800 C 140.325 85.532,139.970 85.600,136.357 85.600 C 132.840 85.600,132.352 85.688,131.907 86.400 C 131.494 87.062,130.974 87.200,128.904 87.200 C 126.667 87.200,126.400 87.285,126.400 88.000 C 126.400 88.711,126.133 88.800,124.000 88.800 C 122.215 88.800,121.600 88.943,121.600 89.357 C 121.600 90.096,120.714 90.400,118.567 90.400 C 117.263 90.400,116.800 90.557,116.800 91.000 C 116.800 91.340,116.442 91.600,115.974 91.600 C 114.817 91.600,113.600 92.320,113.600 93.004 C 113.600 93.433,113.288 93.518,112.377 93.335 C 111.356 93.131,111.117 93.232,110.930 93.945 C 110.756 94.611,110.400 94.800,109.316 94.800 C 108.262 94.800,107.875 94.994,107.716 95.600 C 107.600 96.043,107.170 96.400,106.753 96.400 C 106.267 96.400,106.000 96.683,106.000 97.200 C 106.000 97.867,105.733 98.000,104.400 98.000 C 103.067 98.000,102.800 98.133,102.800 98.800 C 102.800 99.333,102.533 99.600,102.000 99.600 C 101.467 99.600,101.200 99.867,101.200 100.400 C 101.200 100.924,100.933 101.200,100.427 101.200 C 100.002 101.200,99.540 101.560,99.400 102.000 C 99.220 102.568,98.795 102.800,97.936 102.800 C 97.062 102.800,96.667 103.022,96.516 103.600 C 96.400 104.043,95.970 104.400,95.553 104.400 C 95.067 104.400,94.800 104.683,94.800 105.200 C 94.800 105.665,94.533 106.000,94.163 106.000 C 93.812 106.000,93.431 106.360,93.316 106.800 C 93.201 107.240,92.841 107.600,92.516 107.600 C 92.191 107.600,91.831 107.960,91.716 108.400 C 91.601 108.840,91.258 109.200,90.953 109.200 C 90.649 109.200,90.400 109.560,90.400 110.000 C 90.400 110.533,90.133 110.800,89.600 110.800 C 88.982 110.800,88.800 111.067,88.800 111.973 C 88.800 112.795,88.560 113.222,88.000 113.400 C 87.560 113.540,87.200 114.002,87.200 114.427 C 87.200 114.933,86.924 115.200,86.400 115.200 C 85.867 115.200,85.600 115.467,85.600 116.000 C 85.600 116.533,85.333 116.800,84.800 116.800 C 84.133 116.800,84.000 117.067,84.000 118.400 C 84.000 119.733,83.867 120.000,83.200 120.000 C 82.683 120.000,82.400 120.267,82.400 120.753 C 82.400 121.170,82.043 121.600,81.600 121.716 C 80.987 121.876,80.800 122.262,80.800 123.363 C 80.800 124.533,80.652 124.800,80.000 124.800 C 79.333 124.800,79.200 125.067,79.200 126.400 C 79.200 127.733,79.067 128.000,78.400 128.000 C 77.733 128.000,77.600 128.267,77.600 129.600 C 77.600 130.701,77.426 131.200,77.043 131.200 C 76.328 131.200,76.000 132.077,76.000 133.986 C 76.000 135.156,75.821 135.554,75.222 135.710 C 74.570 135.881,74.451 136.247,74.490 137.963 C 74.526 139.557,74.366 140.137,73.768 140.574 C 73.173 141.009,72.990 141.663,72.957 143.468 C 72.887 147.219,72.835 147.507,72.100 148.242 C 70.742 149.599,70.861 179.600,72.225 179.600 C 72.821 179.600,72.879 179.962,72.957 184.132 C 72.990 185.905,73.177 186.594,73.740 187.005 C 74.243 187.373,74.475 188.036,74.463 189.073 C 74.441 191.110,74.734 192.000,75.427 192.000 C 75.829 192.000,76.000 192.478,76.000 193.600 C 76.000 194.933,76.133 195.200,76.800 195.200 C 77.482 195.200,77.600 195.467,77.600 197.004 C 77.600 198.313,77.820 198.996,78.400 199.493 C 78.840 199.870,79.200 200.498,79.200 200.889 C 79.200 201.280,79.560 201.960,80.000 202.400 C 80.440 202.840,80.800 203.560,80.800 204.000 C 80.800 204.533,81.067 204.800,81.600 204.800 C 82.252 204.800,82.400 205.067,82.400 206.237 C 82.400 207.338,82.587 207.724,83.200 207.884 C 83.643 208.000,84.000 208.430,84.000 208.847 C 84.000 209.333,84.283 209.600,84.800 209.600 C 85.448 209.600,85.600 209.867,85.600 211.000 C 85.600 212.133,85.752 212.400,86.400 212.400 C 86.933 212.400,87.200 212.667,87.200 213.200 C 87.200 213.733,87.467 214.000,88.000 214.000 C 88.533 214.000,88.800 214.267,88.800 214.800 C 88.800 215.240,89.058 215.600,89.373 215.600 C 89.688 215.600,90.060 215.960,90.200 216.400 C 90.340 216.840,90.712 217.200,91.027 217.200 C 91.342 217.200,91.600 217.547,91.600 217.972 C 91.600 218.468,91.922 218.790,92.500 218.872 C 93.101 218.958,93.361 219.233,93.282 219.700 C 93.202 220.177,93.426 220.400,93.982 220.400 C 94.533 220.400,94.800 220.661,94.800 221.200 C 94.800 221.733,95.067 222.000,95.600 222.000 C 96.133 222.000,96.400 222.267,96.400 222.800 C 96.400 223.333,96.667 223.600,97.200 223.600 C 97.733 223.600,98.000 223.867,98.000 224.400 C 98.000 224.917,98.267 225.200,98.753 225.200 C 99.170 225.200,99.600 225.557,99.716 226.000 C 99.831 226.440,100.212 226.800,100.563 226.800 C 100.913 226.800,101.200 227.051,101.200 227.357 C 101.200 228.002,102.052 228.400,103.433 228.400 C 104.133 228.400,104.400 228.621,104.400 229.200 C 104.400 229.733,104.667 230.000,105.200 230.000 C 105.644 230.000,106.000 230.267,106.000 230.600 C 106.000 231.033,106.444 231.200,107.600 231.200 C 108.933 231.200,109.200 231.333,109.200 232.000 C 109.200 232.517,109.467 232.800,109.953 232.800 C 110.370 232.800,110.800 233.157,110.916 233.600 C 111.070 234.189,111.462 234.400,112.400 234.400 C 113.338 234.400,113.730 234.611,113.884 235.200 C 114.047 235.821,114.430 236.000,115.600 236.000 C 116.770 236.000,117.153 236.179,117.316 236.800 C 117.491 237.468,117.862 237.600,119.563 237.600 C 121.333 237.600,121.600 237.705,121.600 238.400 C 121.600 239.111,121.867 239.200,124.000 239.200 C 126.133 239.200,126.400 239.289,126.400 240.000 C 126.400 240.711,126.667 240.800,128.800 240.800 C 130.933 240.800,131.200 240.889,131.200 241.600 C 131.200 242.330,131.467 242.400,134.237 242.400 C 136.668 242.400,137.477 242.560,138.291 243.200 C 139.205 243.919,139.914 244.000,145.310 244.000 C 150.553 244.000,151.376 244.088,151.821 244.696 C 152.687 245.881,164.060 246.007,165.056 244.843 C 166.090 243.635,205.746 243.499,206.624 244.700 C 207.026 245.250,207.871 245.430,210.568 245.541 C 213.031 245.642,214.000 245.828,214.000 246.198 C 214.000 246.892,214.917 247.200,216.986 247.200 C 218.370 247.200,218.748 247.356,218.916 248.000 C 219.074 248.606,219.462 248.800,220.514 248.800 C 221.277 248.800,222.126 249.070,222.400 249.400 C 222.674 249.730,223.416 250.000,224.049 250.000 C 224.933 250.000,225.200 250.185,225.200 250.800 C 225.200 251.467,225.467 251.600,226.800 251.600 C 228.133 251.600,228.400 251.733,228.400 252.400 C 228.400 253.045,228.667 253.200,229.773 253.200 C 230.795 253.200,231.211 253.405,231.400 254.000 C 231.589 254.595,232.005 254.800,233.027 254.800 C 234.133 254.800,234.400 254.955,234.400 255.600 C 234.400 256.267,234.667 256.400,236.000 256.400 C 237.333 256.400,237.600 256.533,237.600 257.200 C 237.600 257.867,237.867 258.000,239.200 258.000 C 240.533 258.000,240.800 258.133,240.800 258.800 C 240.800 259.467,241.067 259.600,242.400 259.600 C 243.733 259.600,244.000 259.733,244.000 260.400 C 244.000 261.067,244.267 261.200,245.600 261.200 C 246.933 261.200,247.200 261.333,247.200 262.000 C 247.200 262.667,247.467 262.800,248.800 262.800 C 250.133 262.800,250.400 262.933,250.400 263.600 C 250.400 264.044,250.667 264.400,251.000 264.400 C 251.330 264.400,251.960 264.760,252.400 265.200 C 252.840 265.640,253.470 266.000,253.800 266.000 C 254.130 266.000,254.760 266.360,255.200 266.800 C 255.640 267.240,256.429 267.600,256.953 267.600 C 257.570 267.600,257.981 267.882,258.116 268.400 C 258.276 269.013,258.662 269.200,259.763 269.200 C 260.774 269.200,261.200 269.378,261.200 269.800 C 261.200 270.133,261.556 270.400,262.000 270.400 C 262.533 270.400,262.800 270.667,262.800 271.200 C 262.800 271.733,263.067 272.000,263.600 272.000 C 264.040 272.000,264.760 272.360,265.200 272.800 C 265.640 273.240,266.360 273.600,266.800 273.600 C 267.333 273.600,267.600 273.867,267.600 274.400 C 267.600 274.933,267.867 275.200,268.400 275.200 C 268.933 275.200,269.200 275.467,269.200 276.000 C 269.200 276.440,269.462 276.800,269.782 276.800 C 270.131 276.800,270.469 277.363,270.627 278.206 C 270.772 278.979,271.109 279.744,271.376 279.906 C 271.642 280.068,271.976 280.515,272.118 280.900 C 272.259 281.285,272.651 281.600,272.987 281.600 C 273.324 281.600,273.609 281.915,273.619 282.300 C 273.651 283.492,273.660 295.759,273.629 296.500 C 273.613 296.885,273.333 297.200,273.008 297.200 C 272.345 297.200,271.789 298.874,272.144 299.799 C 272.298 300.200,272.129 300.400,271.634 300.400 C 271.227 300.400,270.799 300.760,270.684 301.200 C 270.569 301.640,270.188 302.000,269.837 302.000 C 269.467 302.000,269.200 302.335,269.200 302.800 C 269.200 303.333,268.933 303.600,268.400 303.600 C 267.867 303.600,267.600 303.867,267.600 304.400 C 267.600 304.933,267.333 305.200,266.800 305.200 C 266.267 305.200,266.000 305.467,266.000 306.000 C 266.000 306.533,265.733 306.800,265.200 306.800 C 264.667 306.800,264.400 307.067,264.400 307.600 C 264.400 308.267,264.133 308.400,262.800 308.400 C 261.467 308.400,261.200 308.533,261.200 309.200 C 261.200 309.867,260.933 310.000,259.600 310.000 C 258.520 310.000,258.000 310.176,258.000 310.542 C 258.000 310.931,257.139 311.150,254.962 311.314 C 252.831 311.475,251.685 311.761,251.120 312.272 C 249.934 313.345,238.313 313.374,237.517 312.306 C 237.126 311.780,236.138 311.546,233.464 311.344 C 231.070 311.163,229.861 310.903,229.721 310.538 C 229.583 310.179,228.796 310.000,227.357 310.000 C 225.467 310.000,225.200 309.901,225.200 309.200 C 225.200 308.533,224.933 308.400,223.600 308.400 C 222.267 308.400,222.000 308.267,222.000 307.600 C 222.000 307.067,221.733 306.800,221.200 306.800 C 220.667 306.800,220.400 306.533,220.400 306.000 C 220.400 305.467,220.133 305.200,219.600 305.200 C 219.067 305.200,218.800 304.933,218.800 304.400 C 218.800 303.867,218.533 303.600,218.000 303.600 C 217.467 303.600,217.200 303.333,217.200 302.800 C 217.200 302.267,216.933 302.000,216.400 302.000 C 215.695 302.000,215.600 301.733,215.600 299.763 C 215.600 297.862,215.480 297.494,214.800 297.316 C 214.073 297.126,214.000 296.770,214.000 293.400 C 214.000 290.030,214.073 289.674,214.800 289.484 C 215.406 289.325,215.600 288.938,215.600 287.884 C 215.600 286.830,215.794 286.443,216.400 286.284 C 216.840 286.169,217.200 285.800,217.200 285.464 C 217.200 285.129,217.560 284.740,218.000 284.600 C 218.440 284.460,218.800 284.088,218.800 283.773 C 218.800 283.458,219.160 283.200,219.600 283.200 C 220.133 283.200,220.400 282.933,220.400 282.400 C 220.400 281.748,220.667 281.600,221.837 281.600 C 222.938 281.600,223.324 281.413,223.484 280.800 C 223.675 280.072,224.030 280.000,227.447 280.000 L 231.200 280.000 231.200 276.187 C 231.200 273.168,231.075 272.327,230.600 272.145 C 230.230 272.003,230.000 271.395,230.000 270.557 C 230.000 269.467,229.843 269.200,229.200 269.200 C 228.548 269.200,228.400 268.933,228.400 267.763 C 228.400 266.662,228.213 266.276,227.600 266.116 C 227.157 266.000,226.800 265.570,226.800 265.153 C 226.800 264.667,226.517 264.400,226.000 264.400 C 225.467 264.400,225.200 264.133,225.200 263.600 C 225.200 263.067,224.933 262.800,224.400 262.800 C 223.867 262.800,223.600 262.533,223.600 262.000 C 223.600 261.483,223.333 261.200,222.847 261.200 C 222.430 261.200,222.000 260.843,221.884 260.400 C 221.724 259.787,221.338 259.600,220.237 259.600 C 219.067 259.600,218.800 259.452,218.800 258.800 C 218.800 258.133,218.533 258.000,217.200 258.000 C 215.867 258.000,215.600 257.867,215.600 257.200 C 215.600 256.491,215.333 256.400,213.247 256.400 C 211.230 256.400,210.863 256.286,210.684 255.600 C 210.487 254.846,210.138 254.800,204.600 254.800 C 199.062 254.800,198.713 254.846,198.516 255.600 C 198.339 256.277,197.970 256.400,196.116 256.400 C 194.262 256.400,193.893 256.523,193.716 257.200 C 193.561 257.794,193.170 258.000,192.200 258.000 C 191.230 258.000,190.839 258.206,190.684 258.800 C 190.559 259.279,190.138 259.600,189.637 259.600 C 189.177 259.600,188.471 259.929,188.069 260.331 C 187.668 260.732,187.038 261.177,186.669 261.318 C 186.301 261.459,186.000 261.830,186.000 262.141 C 186.000 262.452,185.640 262.801,185.200 262.916 C 184.587 263.076,184.400 263.462,184.400 264.563 C 184.400 265.733,184.252 266.000,183.600 266.000 C 183.083 266.000,182.800 266.267,182.800 266.753 C 182.800 267.170,182.443 267.600,182.000 267.716 C 181.335 267.890,181.200 268.262,181.200 269.916 C 181.200 271.570,181.065 271.942,180.400 272.116 C 179.148 272.443,179.148 290.800,180.400 290.800 C 181.111 290.800,181.200 291.067,181.200 293.200 C 181.200 295.333,181.289 295.600,182.000 295.600 C 182.652 295.600,182.800 295.867,182.800 297.037 C 182.800 298.138,182.987 298.524,183.600 298.684 C 184.043 298.800,184.400 299.230,184.400 299.647 C 184.400 300.133,184.683 300.400,185.200 300.400 C 185.733 300.400,186.000 300.667,186.000 301.200 C 186.000 301.733,186.267 302.000,186.800 302.000 C 187.333 302.000,187.600 302.267,187.600 302.800 C 187.600 303.333,187.867 303.600,188.400 303.600 C 188.933 303.600,189.200 303.867,189.200 304.400 C 189.200 304.840,189.449 305.200,189.753 305.200 C 190.058 305.200,190.401 305.560,190.516 306.000 C 190.631 306.440,190.991 306.800,191.316 306.800 C 191.641 306.800,192.001 307.160,192.116 307.600 C 192.231 308.040,192.591 308.400,192.916 308.400 C 193.241 308.400,193.601 308.760,193.716 309.200 C 193.831 309.640,194.193 310.000,194.520 310.000 C 194.847 310.000,195.218 310.270,195.345 310.600 C 195.489 310.977,196.101 311.200,196.987 311.200 C 198.133 311.200,198.400 311.351,198.400 312.000 C 198.400 312.667,198.667 312.800,200.000 312.800 C 201.333 312.800,201.600 312.933,201.600 313.600 C 201.600 314.267,201.867 314.400,203.200 314.400 C 204.533 314.400,204.800 314.533,204.800 315.200 C 204.800 315.867,205.067 316.000,206.400 316.000 C 207.733 316.000,208.000 316.133,208.000 316.800 C 208.000 317.448,208.267 317.600,209.400 317.600 C 210.267 317.600,211.105 317.905,211.600 318.400 C 212.222 319.022,212.933 319.200,214.800 319.200 C 216.933 319.200,217.200 319.289,217.200 320.000 C 217.200 320.733,217.467 320.800,220.400 320.800 C 223.333 320.800,223.600 320.867,223.600 321.600 C 223.600 322.347,223.867 322.400,227.600 322.400 C 230.752 322.400,231.600 322.518,231.600 322.957 C 231.600 324.392,259.110 324.632,259.484 323.200 C 259.675 322.471,260.030 322.400,263.484 322.400 C 266.938 322.400,267.293 322.329,267.484 321.600 C 267.669 320.891,268.030 320.800,270.647 320.800 C 273.333 320.800,273.600 320.728,273.600 320.000 C 273.600 319.295,273.867 319.200,275.837 319.200 C 277.738 319.200,278.106 319.080,278.284 318.400 C 278.448 317.773,278.830 317.600,280.047 317.600 C 281.333 317.600,281.600 317.463,281.600 316.800 C 281.600 316.133,281.867 316.000,283.200 316.000 C 284.533 316.000,284.800 315.867,284.800 315.200 C 284.800 314.548,285.067 314.400,286.237 314.400 C 287.338 314.400,287.724 314.213,287.884 313.600 C 288.000 313.157,288.430 312.800,288.847 312.800 C 289.333 312.800,289.600 312.517,289.600 312.000 C 289.600 311.352,289.867 311.200,291.000 311.200 C 291.978 311.200,292.400 311.019,292.400 310.600 C 292.400 310.267,292.756 310.000,293.200 310.000 C 293.733 310.000,294.000 309.733,294.000 309.200 C 294.000 308.667,294.267 308.400,294.800 308.400 C 295.333 308.400,295.600 308.133,295.600 307.600 C 295.600 307.067,295.867 306.800,296.400 306.800 C 296.933 306.800,297.200 306.533,297.200 306.000 C 297.200 305.467,297.467 305.200,298.000 305.200 C 298.533 305.200,298.800 304.933,298.800 304.400 C 298.800 303.867,299.067 303.600,299.600 303.600 C 300.133 303.600,300.400 303.333,300.400 302.800 C 300.400 302.267,300.667 302.000,301.200 302.000 C 301.717 302.000,302.000 301.733,302.000 301.247 C 302.000 300.830,302.357 300.400,302.800 300.284 C 303.413 300.124,303.600 299.738,303.600 298.637 C 303.600 297.467,303.748 297.200,304.400 297.200 C 305.067 297.200,305.200 296.933,305.200 295.600 C 305.200 294.267,305.333 294.000,306.000 294.000 C 306.663 294.000,306.800 293.733,306.800 292.447 C 306.800 291.230,306.973 290.848,307.600 290.684 C 308.280 290.506,308.400 290.138,308.400 288.237 C 308.400 286.599,308.548 286.000,308.953 286.000 C 309.854 286.000,309.989 284.644,309.995 275.550 C 310.000 266.315,309.821 264.400,308.950 264.400 C 308.611 264.400,308.400 263.959,308.400 263.250 C 308.400 261.263,307.921 259.600,307.350 259.600 C 307.035 259.600,306.800 259.187,306.800 258.633 C 306.800 257.283,306.406 256.400,305.804 256.400 C 305.523 256.400,305.199 256.040,305.084 255.600 C 304.969 255.160,304.588 254.800,304.237 254.800 C 303.778 254.800,303.600 254.417,303.600 253.427 C 303.600 252.405,303.395 251.989,302.800 251.800 C 302.360 251.660,302.000 251.288,302.000 250.973 C 302.000 250.658,301.640 250.400,301.200 250.400 C 300.667 250.400,300.400 250.133,300.400 249.600 C 300.400 249.067,300.133 248.800,299.600 248.800 C 299.067 248.800,298.800 248.533,298.800 248.000 C 298.800 247.467,298.533 247.200,298.000 247.200 C 297.467 247.200,297.200 246.933,297.200 246.400 C 297.200 245.867,296.933 245.600,296.400 245.600 C 295.867 245.600,295.600 245.333,295.600 244.800 C 295.600 244.267,295.333 244.000,294.800 244.000 C 294.267 244.000,294.000 243.733,294.000 243.200 C 294.000 242.667,293.733 242.400,293.200 242.400 C 292.667 242.400,292.400 242.133,292.400 241.600 C 292.400 240.958,292.133 240.800,291.047 240.800 C 290.030 240.800,289.641 240.601,289.484 240.000 C 289.369 239.560,289.000 239.200,288.664 239.200 C 288.329 239.200,287.940 238.840,287.800 238.400 C 287.611 237.805,287.195 237.600,286.173 237.600 C 285.207 237.600,284.800 237.419,284.800 236.987 C 284.800 236.651,284.485 236.257,284.100 236.114 C 283.715 235.970,283.153 235.509,282.851 235.089 C 282.481 234.574,281.983 234.387,281.322 234.513 C 280.557 234.659,280.259 234.482,279.964 233.706 C 279.649 232.878,279.381 232.741,278.359 232.891 C 277.353 233.039,277.067 232.902,276.776 232.136 C 276.495 231.399,276.120 231.200,275.010 231.200 C 274.023 231.200,273.600 231.020,273.600 230.600 C 273.600 230.270,273.280 230.000,272.889 230.000 C 272.498 230.000,271.870 229.640,271.493 229.200 C 271.116 228.760,270.356 228.400,269.804 228.400 C 269.067 228.400,268.800 228.187,268.800 227.600 C 268.800 226.958,268.533 226.800,267.447 226.800 C 266.430 226.800,266.041 226.601,265.884 226.000 C 265.724 225.387,265.338 225.200,264.237 225.200 C 263.067 225.200,262.800 225.052,262.800 224.400 C 262.800 223.733,262.533 223.600,261.200 223.600 C 259.867 223.600,259.600 223.467,259.600 222.800 C 259.600 222.133,259.333 222.000,258.000 222.000 C 256.667 222.000,256.400 221.867,256.400 221.200 C 256.400 220.533,256.133 220.400,254.800 220.400 C 253.467 220.400,253.200 220.267,253.200 219.600 C 253.200 218.933,252.933 218.800,251.600 218.800 C 250.267 218.800,250.000 218.667,250.000 218.000 C 250.000 217.358,249.733 217.200,248.647 217.200 C 247.630 217.200,247.241 217.001,247.084 216.400 C 246.969 215.960,246.588 215.600,246.237 215.600 C 245.887 215.600,245.223 215.223,244.763 214.763 C 244.267 214.267,243.615 214.007,243.163 214.126 C 242.611 214.270,242.400 214.116,242.400 213.570 C 242.400 212.756,240.846 212.143,239.801 212.544 C 239.396 212.700,239.200 212.527,239.200 212.014 C 239.200 211.596,238.840 211.140,238.400 211.000 C 237.960 210.860,237.600 210.488,237.600 210.173 C 237.600 209.771,237.122 209.600,236.000 209.600 C 234.667 209.600,234.400 209.467,234.400 208.800 C 234.400 208.267,234.133 208.000,233.600 208.000 C 233.067 208.000,232.800 207.733,232.800 207.200 C 232.800 206.667,232.533 206.400,232.000 206.400 C 231.467 206.400,231.200 206.133,231.200 205.600 C 231.200 205.160,230.951 204.800,230.647 204.800 C 230.342 204.800,229.999 204.440,229.884 204.000 C 229.769 203.560,229.409 203.200,229.084 203.200 C 228.759 203.200,228.399 202.840,228.284 202.400 C 228.169 201.960,227.788 201.600,227.437 201.600 C 227.030 201.600,226.800 201.251,226.800 200.633 C 226.800 199.252,226.402 198.400,225.757 198.400 C 225.376 198.400,225.200 197.906,225.200 196.833 C 225.200 194.878,224.877 194.000,224.157 194.000 C 223.167 194.000,223.394 189.319,224.400 189.000 C 225.068 188.788,225.200 188.395,225.200 186.620 C 225.200 184.830,225.327 184.460,226.000 184.284 C 226.440 184.169,226.800 183.788,226.800 183.437 C 226.800 183.087,226.984 182.800,227.210 182.800 C 227.435 182.800,227.791 182.350,228.000 181.800 C 228.209 181.250,228.655 180.800,228.990 180.800 C 229.326 180.800,229.600 180.530,229.600 180.200 C 229.600 179.867,229.956 179.600,230.400 179.600 C 230.933 179.600,231.200 179.333,231.200 178.800 C 231.200 178.267,231.467 178.000,232.000 178.000 C 232.533 178.000,232.800 177.733,232.800 177.200 C 232.800 176.495,233.067 176.400,235.037 176.400 C 236.938 176.400,237.306 176.280,237.484 175.600 C 237.670 174.890,238.030 174.800,240.684 174.800 C 243.338 174.800,243.698 174.710,243.884 174.000 C 244.062 173.319,244.430 173.200,246.350 173.200 C 248.174 173.200,248.703 173.354,249.107 174.000 C 249.555 174.717,250.040 174.800,253.803 174.800 C 257.733 174.800,258.000 174.851,258.000 175.600 C 258.000 176.311,258.267 176.400,260.400 176.400 C 262.533 176.400,262.800 176.489,262.800 177.200 C 262.800 177.867,263.067 178.000,264.400 178.000 C 265.733 178.000,266.000 178.133,266.000 178.800 C 266.000 179.333,266.267 179.600,266.800 179.600 C 267.333 179.600,267.600 179.867,267.600 180.400 C 267.600 180.933,267.867 181.200,268.400 181.200 C 268.933 181.200,269.200 181.467,269.200 182.000 C 269.200 182.533,269.467 182.800,270.000 182.800 C 270.440 182.800,270.800 183.004,270.800 183.253 C 270.800 183.502,271.394 184.267,272.120 184.953 C 272.846 185.639,273.561 186.515,273.708 186.900 C 273.855 187.285,274.231 187.600,274.543 187.600 C 274.875 187.600,275.220 188.181,275.374 189.000 C 275.531 189.838,275.870 190.400,276.218 190.400 C 276.538 190.400,276.800 190.760,276.800 191.200 C 276.800 191.715,277.067 192.000,277.549 192.000 C 278.158 192.000,278.335 192.383,278.496 194.054 C 278.623 195.383,278.924 196.238,279.346 196.474 C 279.779 196.716,280.000 197.374,280.000 198.420 C 280.000 199.733,280.135 200.000,280.800 200.000 C 281.505 200.000,281.600 200.267,281.600 202.237 C 281.600 204.138,281.720 204.506,282.400 204.684 C 283.109 204.869,283.200 205.230,283.200 207.847 C 283.200 210.533,283.272 210.800,284.000 210.800 C 284.711 210.800,284.800 211.067,284.800 213.200 L 284.800 215.600 289.226 215.600 C 291.661 215.600,294.001 215.414,294.426 215.186 C 295.389 214.671,295.519 212.097,294.600 211.745 C 294.088 211.548,294.000 209.995,294.000 201.157 C 294.000 191.067,293.979 190.800,293.200 190.800 C 292.419 190.800,292.400 190.533,292.400 179.800 C 292.400 169.067,292.381 168.800,291.600 168.800 C 290.866 168.800,290.800 168.533,290.800 165.585 L 290.800 162.370 287.100 162.485 L 283.400 162.600 283.280 164.900 C 283.177 166.873,283.049 167.200,282.380 167.200 C 281.867 167.200,281.600 167.473,281.600 168.000 C 281.600 168.733,281.333 168.800,278.400 168.800 C 275.467 168.800,275.200 168.733,275.200 168.000 C 275.200 167.277,274.933 167.200,272.414 167.200 C 270.038 167.200,269.565 167.082,269.200 166.400 C 268.831 165.710,268.362 165.600,265.786 165.600 C 263.067 165.600,262.800 165.529,262.800 164.800 C 262.800 164.055,262.533 164.000,258.889 164.000 C 255.473 164.000,254.891 163.899,254.293 163.200 C 253.330 162.075,162.536 161.922,161.415 163.043 C 160.896 163.562,160.794 164.426,160.886 167.543 L 161.000 171.400 164.900 171.514 C 168.470 171.619,168.800 171.695,168.800 172.414 C 168.800 173.107,169.081 173.200,171.163 173.200 C 173.328 173.200,173.508 173.267,173.316 174.000 C 173.155 174.614,173.304 174.800,173.953 174.800 C 174.461 174.800,174.800 175.055,174.800 175.437 C 174.800 175.788,175.160 176.169,175.600 176.284 C 176.040 176.399,176.400 176.759,176.400 177.084 C 176.400 177.409,176.760 177.769,177.200 177.884 C 177.643 178.000,178.000 178.430,178.000 178.847 C 178.000 179.333,178.283 179.600,178.800 179.600 C 179.495 179.600,179.600 179.867,179.600 181.637 C 179.600 183.338,179.732 183.709,180.400 183.884 C 181.184 184.089,181.200 184.430,181.200 201.400 C 181.200 218.370,181.184 218.711,180.400 218.916 C 179.720 219.094,179.600 219.462,179.600 221.363 C 179.600 223.333,179.505 223.600,178.800 223.600 C 178.267 223.600,178.000 223.867,178.000 224.400 C 178.000 224.840,177.749 225.200,177.443 225.200 C 176.798 225.200,176.400 226.052,176.400 227.433 C 176.400 228.120,176.178 228.400,175.633 228.400 C 174.441 228.400,173.600 228.831,173.600 229.443 C 173.600 229.749,173.234 230.000,172.787 230.000 C 172.341 230.000,171.871 230.270,171.745 230.600 C 171.618 230.930,171.188 231.200,170.790 231.200 C 169.638 231.200,168.800 231.639,168.800 232.243 C 168.800 232.549,168.575 232.812,168.300 232.826 C 161.177 233.195,151.106 232.839,150.393 232.194 C 149.897 231.745,148.744 231.395,147.394 231.283 C 145.886 231.158,145.200 230.929,145.200 230.550 C 145.200 230.175,144.692 230.000,143.600 230.000 C 142.267 230.000,142.000 229.867,142.000 229.200 C 142.000 228.533,141.733 228.400,140.400 228.400 C 139.067 228.400,138.800 228.267,138.800 227.600 C 138.800 227.067,138.533 226.800,138.000 226.800 C 137.467 226.800,137.200 226.533,137.200 226.000 C 137.200 225.467,136.933 225.200,136.400 225.200 C 135.867 225.200,135.600 224.933,135.600 224.400 C 135.600 223.883,135.333 223.600,134.847 223.600 C 134.430 223.600,134.000 223.243,133.884 222.800 C 133.769 222.360,133.409 222.000,133.084 222.000 C 132.759 222.000,132.399 221.640,132.284 221.200 C 132.169 220.760,131.788 220.400,131.437 220.400 C 131.067 220.400,130.800 220.065,130.800 219.600 C 130.800 219.160,130.551 218.800,130.247 218.800 C 129.942 218.800,129.599 218.440,129.484 218.000 C 129.369 217.560,128.988 217.200,128.637 217.200 C 128.267 217.200,128.000 216.865,128.000 216.400 C 128.000 215.867,127.733 215.600,127.200 215.600 C 126.555 215.600,126.400 215.333,126.400 214.227 C 126.400 213.205,126.195 212.789,125.600 212.600 C 125.032 212.420,124.800 211.995,124.800 211.136 C 124.800 210.262,124.578 209.867,124.000 209.716 C 123.373 209.552,123.200 209.170,123.200 207.953 C 123.200 206.667,123.063 206.400,122.400 206.400 C 121.733 206.400,121.600 206.133,121.600 204.800 C 121.600 203.467,121.467 203.200,120.800 203.200 C 120.089 203.200,120.000 202.933,120.000 200.800 C 120.000 198.667,119.911 198.400,119.200 198.400 C 118.471 198.400,118.400 198.133,118.400 195.400 C 118.400 192.667,118.329 192.400,117.600 192.400 C 116.853 192.400,116.800 192.133,116.800 188.400 C 116.800 184.667,116.747 184.400,116.000 184.400 C 115.210 184.400,115.200 184.133,115.200 164.047 C 115.200 144.030,115.213 143.690,116.000 143.484 C 116.729 143.293,116.800 142.938,116.800 139.484 C 116.800 136.030,116.871 135.675,117.600 135.484 C 118.304 135.300,118.400 134.938,118.400 132.464 C 118.400 130.005,118.500 129.622,119.200 129.400 C 119.868 129.188,120.000 128.795,120.000 127.020 C 120.000 125.230,120.127 124.860,120.800 124.684 C 121.383 124.532,121.600 124.138,121.600 123.237 C 121.600 122.533,121.945 121.655,122.400 121.200 C 122.840 120.760,123.200 119.944,123.200 119.387 C 123.200 118.831,123.465 118.273,123.789 118.149 C 124.113 118.024,124.493 117.310,124.634 116.561 C 124.774 115.813,125.120 115.200,125.402 115.200 C 126.006 115.200,126.400 114.318,126.400 112.967 C 126.400 112.267,126.621 112.000,127.200 112.000 C 127.717 112.000,128.000 111.733,128.000 111.247 C 128.000 110.830,128.357 110.400,128.800 110.284 C 129.240 110.169,129.600 109.788,129.600 109.437 C 129.600 109.087,129.870 108.800,130.200 108.800 C 130.530 108.800,130.800 108.538,130.800 108.218 C 130.800 107.464,132.664 105.600,133.418 105.600 C 133.738 105.600,134.000 105.351,134.000 105.047 C 134.000 104.742,134.360 104.399,134.800 104.284 C 135.240 104.169,135.600 103.788,135.600 103.437 C 135.600 103.067,135.935 102.800,136.400 102.800 C 136.933 102.800,137.200 102.533,137.200 102.000 C 137.200 101.348,137.467 101.200,138.637 101.200 C 139.738 101.200,140.124 101.013,140.284 100.400 C 140.432 99.834,140.830 99.600,141.643 99.600 C 142.360 99.600,142.981 99.299,143.293 98.800 C 143.631 98.258,144.226 98.000,145.134 98.000 C 146.138 98.000,146.527 97.799,146.684 97.200 C 146.874 96.475,147.230 96.400,150.484 96.400 C 153.738 96.400,154.094 96.325,154.284 95.600 C 154.482 94.843,154.830 94.800,160.800 94.800 C 166.770 94.800,167.118 94.843,167.316 95.600 C 167.506 96.325,167.862 96.400,171.136 96.400 C 174.395 96.400,174.771 96.478,175.000 97.200 C 175.212 97.868,175.605 98.000,177.380 98.000 C 179.170 98.000,179.540 98.127,179.716 98.800 C 179.875 99.406,180.262 99.600,181.316 99.600 C 182.370 99.600,182.757 99.794,182.916 100.400 C 183.076 101.013,183.462 101.200,184.563 101.200 C 185.733 101.200,186.000 101.348,186.000 102.000 C 186.000 102.517,186.267 102.800,186.753 102.800 C 187.170 102.800,187.600 103.157,187.716 103.600 C 187.866 104.174,188.262 104.400,189.116 104.400 C 189.970 104.400,190.366 104.626,190.516 105.200 C 190.631 105.640,191.012 106.000,191.363 106.000 C 191.713 106.000,192.000 106.274,192.000 106.610 C 192.000 106.945,192.410 107.376,192.912 107.566 C 193.455 107.773,193.851 108.283,193.892 108.830 C 193.930 109.334,194.240 109.903,194.581 110.093 C 194.921 110.284,195.200 110.791,195.200 111.220 C 195.200 111.733,195.473 112.000,196.000 112.000 C 196.533 112.000,196.800 112.267,196.800 112.800 C 196.800 113.333,197.067 113.600,197.600 113.600 C 198.267 113.600,198.400 113.867,198.400 115.200 C 198.400 116.533,198.533 116.800,199.200 116.800 C 199.867 116.800,200.000 117.067,200.000 118.400 C 200.000 119.733,200.133 120.000,200.800 120.000 C 201.502 120.000,201.600 120.267,201.600 122.173 C 201.600 123.995,201.729 124.387,202.400 124.600 C 203.068 124.812,203.200 125.205,203.200 126.980 C 203.200 128.770,203.327 129.140,204.000 129.316 C 204.711 129.502,204.800 129.862,204.800 132.563 L 204.800 135.600 209.400 135.600 L 214.000 135.600 214.000 124.633 C 214.000 113.380,213.916 112.400,212.957 112.400 C 212.494 112.400,212.400 110.506,212.400 101.196 C 212.400 90.487,212.365 89.962,211.600 89.307 C 210.971 88.769,210.800 88.127,210.800 86.311 L 210.800 84.000 207.000 84.000 L 203.200 84.000 203.200 85.600 C 203.200 86.933,203.067 87.200,202.400 87.200 C 201.867 87.200,201.600 87.467,201.600 88.000 C 201.600 88.772,201.333 88.800,193.847 88.800 C 186.430 88.800,186.084 88.765,185.884 88.000 C 185.698 87.289,185.338 87.200,182.637 87.200 C 180.133 87.200,179.460 87.060,178.800 86.400 C 178.108 85.708,177.467 85.600,174.047 85.600 C 170.430 85.600,170.076 85.532,169.884 84.800 C 169.680 84.019,169.338 84.000,155.200 84.000 C 141.062 84.000,140.720 84.019,140.516 84.800 " stroke="none" fill="#246c44" fill-rule="evenodd"></path><path id="path1" d="M152.100 233.076 C 152.485 233.176,153.115 233.176,153.500 233.076 C 153.885 232.975,153.570 232.893,152.800 232.893 C 152.030 232.893,151.715 232.975,152.100 233.076 M242.300 313.095 C 243.455 313.176,245.345 313.176,246.500 313.095 C 247.655 313.014,246.710 312.948,244.400 312.948 C 242.090 312.948,241.145 313.014,242.300 313.095 " stroke="none" fill="#286c44" fill-rule="evenodd"></path><path id="path2" d="M152.100 233.076 C 152.485 233.176,153.115 233.176,153.500 233.076 C 153.885 232.975,153.570 232.893,152.800 232.893 C 152.030 232.893,151.715 232.975,152.100 233.076 M242.300 313.095 C 243.455 313.176,245.345 313.176,246.500 313.095 C 247.655 313.014,246.710 312.948,244.400 312.948 C 242.090 312.948,241.145 313.014,242.300 313.095 " stroke="none" fill="#286c44" fill-rule="evenodd"></path><path id="path3" d="M152.100 233.076 C 152.485 233.176,153.115 233.176,153.500 233.076 C 153.885 232.975,153.570 232.893,152.800 232.893 C 152.030 232.893,151.715 232.975,152.100 233.076 M242.300 313.095 C 243.455 313.176,245.345 313.176,246.500 313.095 C 247.655 313.014,246.710 312.948,244.400 312.948 C 242.090 312.948,241.145 313.014,242.300 313.095 " stroke="none" fill="#286c44" fill-rule="evenodd"></path><path id="path4" d="M152.100 233.076 C 152.485 233.176,153.115 233.176,153.500 233.076 C 153.885 232.975,153.570 232.893,152.800 232.893 C 152.030 232.893,151.715 232.975,152.100 233.076 M242.300 313.095 C 243.455 313.176,245.345 313.176,246.500 313.095 C 247.655 313.014,246.710 312.948,244.400 312.948 C 242.090 312.948,241.145 313.014,242.300 313.095 " stroke="none" fill="#286c44" fill-rule="evenodd"></path></g></svg>